<?xml version="1.0" encoding="UTF-8"?>
<!DOCTYPE svg PUBLIC "-//W3C//DTD SVG 1.1//EN" "http://www.w3.org/Graphics/SVG/1.1/DTD/svg11.dtd">
<!-- Creator: CorelDRAW 2020 (64-Bit) -->
<svg xmlns="http://www.w3.org/2000/svg" xml:space="preserve" width="35.1734mm" height="13.9234mm" version="1.1" shape-rendering="geometricPrecision" text-rendering="geometricPrecision" image-rendering="optimizeQuality" fill-rule="evenodd" clip-rule="evenodd"
viewBox="0 0 1078 426.73"
 xmlns:xlink="http://www.w3.org/1999/xlink"
 xmlns:xodm="http://www.corel.com/coreldraw/odm/2003">
 <g id="_0">
  <metadata id="CorelCorpID_0Corel-Layer"/>
  <line fill="none" stroke="white" stroke-width="12.97" stroke-linejoin="bevel" stroke-miterlimit="22.9256" x1="699.91" y1="411.05" x2="699.91" y2= "374.27" />
  <line fill="none" stroke="white" stroke-width="12.97" stroke-linejoin="bevel" stroke-miterlimit="22.9256" x1="690.71" y1="420.24" x2="699.91" y2= "411.05" />
  <line fill="none" stroke="white" stroke-width="12.97" stroke-linejoin="bevel" stroke-miterlimit="22.9256" x1="941.26" y1="84.03" x2="931.08" y2= "98.43" />
  <line fill="none" stroke="white" stroke-width="12.97" stroke-linejoin="bevel" stroke-miterlimit="22.9256" x1="994.9" y1="84.03" x2="941.26" y2= "84.03" />
  <line fill="none" stroke="white" stroke-width="12.97" stroke-linejoin="bevel" stroke-miterlimit="22.9256" x1="994.9" y1="100.58" x2="994.9" y2= "84.03" />
  <line fill="none" stroke="white" stroke-width="12.97" stroke-linejoin="bevel" stroke-miterlimit="22.9256" x1="994.9" y1="100.58" x2="83.11" y2= "100.58" />
  <line fill="none" stroke="white" stroke-width="12.97" stroke-linejoin="bevel" stroke-miterlimit="22.9256" x1="83.11" y1="84.03" x2="83.11" y2= "100.58" />
  <line fill="none" stroke="white" stroke-width="12.97" stroke-linejoin="bevel" stroke-miterlimit="22.9256" x1="136.74" y1="84.03" x2="83.11" y2= "84.03" />
  <line fill="none" stroke="white" stroke-width="12.97" stroke-linejoin="bevel" stroke-miterlimit="22.9256" x1="146.93" y1="98.43" x2="136.74" y2= "84.03" />
  <line fill="none" stroke="white" stroke-width="12.97" stroke-linejoin="bevel" stroke-miterlimit="22.9256" x1="318.11" y1="98.43" x2="146.93" y2= "98.43" />
  <line fill="none" stroke="white" stroke-width="12.97" stroke-linejoin="bevel" stroke-miterlimit="22.9256" x1="328.3" y1="84.03" x2="318.11" y2= "98.43" />
  <line fill="none" stroke="white" stroke-width="12.97" stroke-linejoin="bevel" stroke-miterlimit="22.9256" x1="443.23" y1="84.03" x2="328.3" y2= "84.03" />
  <line fill="none" stroke="white" stroke-width="12.97" stroke-linejoin="bevel" stroke-miterlimit="22.9256" x1="453.41" y1="98.43" x2="443.23" y2= "84.03" />
  <line fill="none" stroke="white" stroke-width="12.97" stroke-linejoin="bevel" stroke-miterlimit="22.9256" x1="624.59" y1="98.43" x2="453.41" y2= "98.43" />
  <line fill="none" stroke="white" stroke-width="12.97" stroke-linejoin="bevel" stroke-miterlimit="22.9256" x1="634.78" y1="84.03" x2="624.59" y2= "98.43" />
  <line fill="none" stroke="white" stroke-width="12.97" stroke-linejoin="bevel" stroke-miterlimit="22.9256" x1="749.71" y1="84.03" x2="634.78" y2= "84.03" />
  <line fill="none" stroke="white" stroke-width="12.97" stroke-linejoin="bevel" stroke-miterlimit="22.9256" x1="759.89" y1="98.43" x2="749.71" y2= "84.03" />
  <line fill="none" stroke="white" stroke-width="12.97" stroke-linejoin="bevel" stroke-miterlimit="22.9256" x1="931.08" y1="98.43" x2="759.89" y2= "98.43" />
  <path fill="none" stroke="white" stroke-width="12.97" stroke-linejoin="bevel" stroke-miterlimit="22.9256" d="M83.11 100.58c-20.32,0 -39.81,8.07 -54.18,22.44 -14.37,14.37 -22.44,33.86 -22.44,54.18"/>
  <line fill="none" stroke="white" stroke-width="12.97" stroke-linejoin="bevel" stroke-miterlimit="22.9256" x1="6.49" y1="177.2" x2="6.49" y2= "21.81" />
  <line fill="none" stroke="white" stroke-width="12.97" stroke-linejoin="bevel" stroke-miterlimit="22.9256" x1="7.64" y1="20.66" x2="6.49" y2= "21.81" />
  <path fill="none" stroke="white" stroke-width="12.97" stroke-linejoin="bevel" stroke-miterlimit="22.9256" d="M7.64 20.66c6.43,36.64 38.26,63.37 75.47,63.37"/>
  <path fill="none" stroke="white" stroke-width="12.97" stroke-linejoin="bevel" stroke-miterlimit="22.9256" d="M1071.52 177.2c0,-20.32 -8.07,-39.81 -22.44,-54.18 -14.37,-14.37 -33.86,-22.44 -54.18,-22.44"/>
  <path fill="none" stroke="white" stroke-width="12.97" stroke-linejoin="bevel" stroke-miterlimit="22.9256" d="M994.9 84.03c37.2,0 69.03,-26.73 75.47,-63.37"/>
  <line fill="none" stroke="white" stroke-width="12.97" stroke-linejoin="bevel" stroke-miterlimit="22.9256" x1="1071.52" y1="21.81" x2="1070.36" y2= "20.66" />
  <line fill="none" stroke="white" stroke-width="12.97" stroke-linejoin="bevel" stroke-miterlimit="22.9256" x1="1071.52" y1="21.81" x2="1071.52" y2= "177.2" />
  <line fill="none" stroke="white" stroke-width="12.97" stroke-linejoin="bevel" stroke-miterlimit="22.9256" x1="1071.52" y1="177.2" x2="1071.52" y2= "207.85" />
  <line fill="none" stroke="white" stroke-width="12.97" stroke-linejoin="bevel" stroke-miterlimit="22.9256" x1="1050.06" y1="186.39" x2="1071.52" y2= "207.85" />
  <line fill="none" stroke="white" stroke-width="12.97" stroke-linejoin="bevel" stroke-miterlimit="22.9256" x1="1050.06" y1="186.39" x2="27.94" y2= "186.39" />
  <line fill="none" stroke="white" stroke-width="12.97" stroke-linejoin="bevel" stroke-miterlimit="22.9256" x1="6.49" y1="207.85" x2="27.94" y2= "186.39" />
  <line fill="none" stroke="white" stroke-width="12.97" stroke-linejoin="bevel" stroke-miterlimit="22.9256" x1="6.49" y1="177.2" x2="6.49" y2= "207.85" />
  <line fill="none" stroke="white" stroke-width="12.97" stroke-linejoin="bevel" stroke-miterlimit="22.9256" x1="941.26" y1="6.49" x2="941.26" y2= "84.03" />
  <line fill="none" stroke="white" stroke-width="12.97" stroke-linejoin="bevel" stroke-miterlimit="22.9256" x1="925.94" y1="98.43" x2="925.94" y2= "21.81" />
  <line fill="none" stroke="white" stroke-width="12.97" stroke-linejoin="bevel" stroke-miterlimit="22.9256" x1="941.26" y1="6.49" x2="925.94" y2= "21.81" />
  <line fill="none" stroke="white" stroke-width="12.97" stroke-linejoin="bevel" stroke-miterlimit="22.9256" x1="136.74" y1="84.03" x2="136.74" y2= "6.49" />
  <line fill="none" stroke="white" stroke-width="12.97" stroke-linejoin="bevel" stroke-miterlimit="22.9256" x1="136.74" y1="6.49" x2="152.07" y2= "21.81" />
  <line fill="none" stroke="white" stroke-width="12.97" stroke-linejoin="bevel" stroke-miterlimit="22.9256" x1="152.07" y1="21.81" x2="152.07" y2= "98.43" />
  <line fill="none" stroke="white" stroke-width="12.97" stroke-linejoin="bevel" stroke-miterlimit="22.9256" x1="749.71" y1="84.03" x2="749.71" y2= "6.49" />
  <line fill="none" stroke="white" stroke-width="12.97" stroke-linejoin="bevel" stroke-miterlimit="22.9256" x1="765.03" y1="21.81" x2="749.71" y2= "6.49" />
  <line fill="none" stroke="white" stroke-width="12.97" stroke-linejoin="bevel" stroke-miterlimit="22.9256" x1="765.03" y1="21.81" x2="765.03" y2= "98.43" />
  <line fill="none" stroke="white" stroke-width="12.97" stroke-linejoin="bevel" stroke-miterlimit="22.9256" x1="312.97" y1="98.43" x2="312.97" y2= "21.81" />
  <line fill="none" stroke="white" stroke-width="12.97" stroke-linejoin="bevel" stroke-miterlimit="22.9256" x1="312.97" y1="21.81" x2="328.3" y2= "6.49" />
  <line fill="none" stroke="white" stroke-width="12.97" stroke-linejoin="bevel" stroke-miterlimit="22.9256" x1="328.3" y1="6.49" x2="328.3" y2= "84.03" />
  <line fill="none" stroke="white" stroke-width="12.97" stroke-linejoin="bevel" stroke-miterlimit="22.9256" x1="619.45" y1="98.43" x2="619.45" y2= "21.81" />
  <line fill="none" stroke="white" stroke-width="12.97" stroke-linejoin="bevel" stroke-miterlimit="22.9256" x1="619.45" y1="21.81" x2="634.78" y2= "6.49" />
  <line fill="none" stroke="white" stroke-width="12.97" stroke-linejoin="bevel" stroke-miterlimit="22.9256" x1="634.78" y1="6.49" x2="634.78" y2= "84.03" />
  <line fill="none" stroke="white" stroke-width="12.97" stroke-linejoin="bevel" stroke-miterlimit="22.9256" x1="443.23" y1="84.03" x2="443.23" y2= "6.49" />
  <line fill="none" stroke="white" stroke-width="12.97" stroke-linejoin="bevel" stroke-miterlimit="22.9256" x1="458.55" y1="21.81" x2="443.23" y2= "6.49" />
  <line fill="none" stroke="white" stroke-width="12.97" stroke-linejoin="bevel" stroke-miterlimit="22.9256" x1="458.55" y1="21.81" x2="458.55" y2= "98.43" />
  <line fill="none" stroke="white" stroke-width="12.97" stroke-linejoin="bevel" stroke-miterlimit="22.9256" x1="21.81" y1="6.49" x2="7.64" y2= "20.66" />
  <line fill="none" stroke="white" stroke-width="12.97" stroke-linejoin="bevel" stroke-miterlimit="22.9256" x1="136.74" y1="6.49" x2="21.81" y2= "6.49" />
  <line fill="none" stroke="white" stroke-width="12.97" stroke-linejoin="bevel" stroke-miterlimit="22.9256" x1="443.23" y1="6.49" x2="328.3" y2= "6.49" />
  <line fill="none" stroke="white" stroke-width="12.97" stroke-linejoin="bevel" stroke-miterlimit="22.9256" x1="1056.19" y1="6.49" x2="941.26" y2= "6.49" />
  <line fill="none" stroke="white" stroke-width="12.97" stroke-linejoin="bevel" stroke-miterlimit="22.9256" x1="1070.36" y1="20.66" x2="1056.19" y2= "6.49" />
  <line fill="none" stroke="white" stroke-width="12.97" stroke-linejoin="bevel" stroke-miterlimit="22.9256" x1="749.71" y1="6.49" x2="634.78" y2= "6.49" />
  <path fill="none" stroke="white" stroke-width="12.97" stroke-linejoin="bevel" stroke-miterlimit="22.9256" d="M893.37 311.05c-30.6,-18.36 -65.16,-18.36 -95.76,0"/>
  <line fill="none" stroke="white" stroke-width="12.97" stroke-linejoin="bevel" stroke-miterlimit="22.9256" x1="755.32" y1="336.42" x2="797.6" y2= "311.05" />
  <path fill="none" stroke="white" stroke-width="12.97" stroke-linejoin="bevel" stroke-miterlimit="22.9256" d="M629.17 336.42c38.82,23.29 87.33,23.29 126.15,0"/>
  <line fill="none" stroke="white" stroke-width="12.97" stroke-linejoin="bevel" stroke-miterlimit="22.9256" x1="586.88" y1="311.05" x2="629.17" y2= "336.42" />
  <path fill="none" stroke="white" stroke-width="12.97" stroke-linejoin="bevel" stroke-miterlimit="22.9256" d="M586.88 311.05c-30.6,-18.36 -65.16,-18.36 -95.76,0"/>
  <line fill="none" stroke="white" stroke-width="12.97" stroke-linejoin="bevel" stroke-miterlimit="22.9256" x1="448.84" y1="336.42" x2="491.12" y2= "311.05" />
  <path fill="none" stroke="white" stroke-width="12.97" stroke-linejoin="bevel" stroke-miterlimit="22.9256" d="M322.69 336.42c38.82,23.29 87.33,23.29 126.15,0"/>
  <line fill="none" stroke="white" stroke-width="12.97" stroke-linejoin="bevel" stroke-miterlimit="22.9256" x1="280.4" y1="311.05" x2="322.69" y2= "336.42" />
  <path fill="none" stroke="white" stroke-width="12.97" stroke-linejoin="bevel" stroke-miterlimit="22.9256" d="M280.4 311.05c-30.6,-18.36 -65.16,-18.36 -95.76,0"/>
  <line fill="none" stroke="white" stroke-width="12.97" stroke-linejoin="bevel" stroke-miterlimit="22.9256" x1="115.04" y1="352.81" x2="184.64" y2= "311.05" />
  <line fill="none" stroke="white" stroke-width="12.97" stroke-linejoin="bevel" stroke-miterlimit="22.9256" x1="113.76" y1="352.81" x2="115.04" y2= "352.81" />
  <path fill="none" stroke="white" stroke-width="12.97" stroke-linejoin="bevel" stroke-miterlimit="22.9256" d="M27.94 267c0,22.76 9.04,44.59 25.13,60.68 16.09,16.09 37.92,25.13 60.68,25.13"/>
  <line fill="none" stroke="white" stroke-width="12.97" stroke-linejoin="bevel" stroke-miterlimit="22.9256" x1="27.94" y1="186.39" x2="27.94" y2= "267" />
  <line fill="none" stroke="white" stroke-width="12.97" stroke-linejoin="bevel" stroke-miterlimit="22.9256" x1="1050.06" y1="267" x2="1050.06" y2= "186.39" />
  <path fill="none" stroke="white" stroke-width="12.97" stroke-linejoin="bevel" stroke-miterlimit="22.9256" d="M964.25 352.81c47.39,0 85.82,-38.42 85.82,-85.82"/>
  <line fill="none" stroke="white" stroke-width="12.97" stroke-linejoin="bevel" stroke-miterlimit="22.9256" x1="962.97" y1="352.81" x2="964.25" y2= "352.81" />
  <line fill="none" stroke="white" stroke-width="12.97" stroke-linejoin="bevel" stroke-miterlimit="22.9256" x1="893.37" y1="311.05" x2="962.97" y2= "352.81" />
  <line fill="none" stroke="white" stroke-width="12.97" stroke-linejoin="bevel" stroke-miterlimit="22.9256" x1="629.17" y1="336.42" x2="629.17" y2= "374.27" />
  <line fill="none" stroke="white" stroke-width="12.97" stroke-linejoin="bevel" stroke-miterlimit="22.9256" x1="629.17" y1="374.27" x2="586.88" y2= "374.27" />
  <line fill="none" stroke="white" stroke-width="12.97" stroke-linejoin="bevel" stroke-miterlimit="22.9256" x1="586.88" y1="311.05" x2="586.88" y2= "374.27" />
  <line fill="none" stroke="white" stroke-width="12.97" stroke-linejoin="bevel" stroke-miterlimit="22.9256" x1="755.32" y1="336.42" x2="797.6" y2= "358.98" />
  <path fill="none" stroke="white" stroke-width="12.97" stroke-linejoin="bevel" stroke-miterlimit="22.9256" d="M812.03 374.27c-1.96,-2.97 -4.04,-5.81 -6.36,-8.44 -1.16,-1.31 -2.38,-2.57 -3.7,-3.73 -1.32,-1.16 -2.73,-2.25 -4.37,-3.12"/>
  <path fill="none" stroke="white" stroke-width="12.97" stroke-linejoin="bevel" stroke-miterlimit="22.9256" d="M812.03 374.27c-13.43,0 -27.18,0 -41.54,0 -7.18,0 -14.52,0 -22.09,0 -7.57,0 -15.44,0 -23.4,0 -7.96,0 -16,0 -24.14,0 -8.14,0 -16.47,0 -24.62,0 -16.3,0 -31.98,0 -47.08,0"/>
  <line fill="none" stroke="white" stroke-width="12.97" stroke-linejoin="bevel" stroke-miterlimit="22.9256" x1="322.69" y1="336.42" x2="322.69" y2= "374.27" />
  <line fill="none" stroke="white" stroke-width="12.97" stroke-linejoin="bevel" stroke-miterlimit="22.9256" x1="448.84" y1="336.42" x2="491.12" y2= "358.98" />
  <path fill="none" stroke="white" stroke-width="12.97" stroke-linejoin="bevel" stroke-miterlimit="22.9256" d="M505.55 374.27c-1.96,-2.97 -4.04,-5.81 -6.36,-8.44 -1.16,-1.31 -2.38,-2.57 -3.7,-3.73 -1.32,-1.16 -2.73,-2.25 -4.37,-3.12"/>
  <path fill="none" stroke="white" stroke-width="12.97" stroke-linejoin="bevel" stroke-miterlimit="22.9256" d="M505.55 374.27c-13.43,0 -27.18,0 -41.54,0 -7.18,0 -14.52,0 -22.09,0 -7.57,0 -15.44,0 -23.4,0 -7.96,0 -16,0 -24.14,0 -8.14,0 -16.47,0 -24.62,0 -16.3,0 -31.98,0 -47.08,0"/>
  <line fill="none" stroke="white" stroke-width="12.97" stroke-linejoin="bevel" stroke-miterlimit="22.9256" x1="184.64" y1="374.27" x2="184.64" y2= "311.05" />
  <line fill="none" stroke="white" stroke-width="12.97" stroke-linejoin="bevel" stroke-miterlimit="22.9256" x1="184.64" y1="374.27" x2="115.04" y2= "374.27" />
  <line fill="none" stroke="white" stroke-width="12.97" stroke-linejoin="bevel" stroke-miterlimit="22.9256" x1="115.04" y1="352.81" x2="115.04" y2= "374.27" />
  <line fill="none" stroke="white" stroke-width="12.97" stroke-linejoin="bevel" stroke-miterlimit="22.9256" x1="893.37" y1="311.05" x2="893.37" y2= "374.27" />
  <line fill="none" stroke="white" stroke-width="12.97" stroke-linejoin="bevel" stroke-miterlimit="22.9256" x1="893.37" y1="374.27" x2="812.03" y2= "374.27" />
  <line fill="none" stroke="white" stroke-width="12.97" stroke-linejoin="bevel" stroke-miterlimit="22.9256" x1="797.6" y1="358.98" x2="797.6" y2= "311.05" />
  <line fill="none" stroke="white" stroke-width="12.97" stroke-linejoin="bevel" stroke-miterlimit="22.9256" x1="964.25" y1="374.27" x2="964.25" y2= "352.81" />
  <line fill="none" stroke="white" stroke-width="12.97" stroke-linejoin="bevel" stroke-miterlimit="22.9256" x1="964.25" y1="374.27" x2="962.97" y2= "374.27" />
  <line fill="none" stroke="white" stroke-width="12.97" stroke-linejoin="bevel" stroke-miterlimit="22.9256" x1="962.97" y1="374.27" x2="962.97" y2= "352.81" />
  <line fill="none" stroke="white" stroke-width="12.97" stroke-linejoin="bevel" stroke-miterlimit="22.9256" x1="962.97" y1="374.27" x2="893.37" y2= "374.27" />
  <line fill="none" stroke="white" stroke-width="12.97" stroke-linejoin="bevel" stroke-miterlimit="22.9256" x1="113.76" y1="374.27" x2="113.76" y2= "352.81" />
  <path fill="none" stroke="white" stroke-width="12.97" stroke-linejoin="bevel" stroke-miterlimit="22.9256" d="M6.49 267c0,28.45 11.3,55.73 31.42,75.85 20.12,20.11 47.4,31.42 75.85,31.42"/>
  <line fill="none" stroke="white" stroke-width="12.97" stroke-linejoin="bevel" stroke-miterlimit="22.9256" x1="27.94" y1="267" x2="6.49" y2= "267" />
  <path fill="none" stroke="white" stroke-width="12.97" stroke-linejoin="bevel" stroke-miterlimit="22.9256" d="M964.25 374.27c59.24,0 107.27,-48.03 107.27,-107.27"/>
  <line fill="none" stroke="white" stroke-width="12.97" stroke-linejoin="bevel" stroke-miterlimit="22.9256" x1="1071.52" y1="267" x2="1050.06" y2= "267" />
  <line fill="none" stroke="white" stroke-width="12.97" stroke-linejoin="bevel" stroke-miterlimit="22.9256" x1="322.69" y1="374.27" x2="280.4" y2= "374.27" />
  <line fill="none" stroke="white" stroke-width="12.97" stroke-linejoin="bevel" stroke-miterlimit="22.9256" x1="280.4" y1="311.05" x2="280.4" y2= "374.27" />
  <line fill="none" stroke="white" stroke-width="12.97" stroke-linejoin="bevel" stroke-miterlimit="22.9256" x1="491.12" y1="358.98" x2="491.12" y2= "311.05" />
  <line fill="none" stroke="white" stroke-width="12.97" stroke-linejoin="bevel" stroke-miterlimit="22.9256" x1="1071.52" y1="207.85" x2="1071.52" y2= "267" />
  <line fill="none" stroke="white" stroke-width="12.97" stroke-linejoin="bevel" stroke-miterlimit="22.9256" x1="6.49" y1="267" x2="6.49" y2= "207.85" />
  <line fill="none" stroke="white" stroke-width="12.97" stroke-linejoin="bevel" stroke-miterlimit="22.9256" x1="586.88" y1="374.27" x2="505.55" y2= "374.27" />
  <line fill="none" stroke="white" stroke-width="12.97" stroke-linejoin="bevel" stroke-miterlimit="22.9256" x1="280.4" y1="374.27" x2="184.64" y2= "374.27" />
  <line fill="none" stroke="white" stroke-width="12.97" stroke-linejoin="bevel" stroke-miterlimit="22.9256" x1="115.04" y1="374.27" x2="113.76" y2= "374.27" />
  <line fill="none" stroke="white" stroke-width="12.97" stroke-linejoin="bevel" stroke-miterlimit="22.9256" x1="429.09" y1="420.24" x2="387.29" y2= "420.24" />
  <line fill="none" stroke="white" stroke-width="12.97" stroke-linejoin="bevel" stroke-miterlimit="22.9256" x1="387.29" y1="420.24" x2="378.1" y2= "411.05" />
  <line fill="none" stroke="white" stroke-width="12.97" stroke-linejoin="bevel" stroke-miterlimit="22.9256" x1="378.1" y1="411.05" x2="430.35" y2= "411.05" />
  <line fill="none" stroke="white" stroke-width="12.97" stroke-linejoin="bevel" stroke-miterlimit="22.9256" x1="429.09" y1="420.24" x2="430.35" y2= "411.05" />
  <line fill="none" stroke="white" stroke-width="12.97" stroke-linejoin="bevel" stroke-miterlimit="22.9256" x1="430.35" y1="411.05" x2="430.35" y2= "374.27" />
  <line fill="none" stroke="white" stroke-width="12.97" stroke-linejoin="bevel" stroke-miterlimit="22.9256" x1="378.1" y1="411.05" x2="378.1" y2= "374.27" />
  <line fill="none" stroke="white" stroke-width="12.97" stroke-linejoin="bevel" stroke-miterlimit="22.9256" x1="654.92" y1="411.05" x2="654.92" y2= "374.27" />
  <line fill="none" stroke="white" stroke-width="12.97" stroke-linejoin="bevel" stroke-miterlimit="22.9256" x1="430.35" y1="411.05" x2="654.92" y2= "411.05" />
  <line fill="none" stroke="white" stroke-width="12.97" stroke-linejoin="bevel" stroke-miterlimit="22.9256" x1="653.66" y1="420.24" x2="429.09" y2= "420.24" />
  <line fill="none" stroke="white" stroke-width="12.97" stroke-linejoin="bevel" stroke-miterlimit="22.9256" x1="653.66" y1="420.24" x2="654.92" y2= "411.05" />
  <line fill="none" stroke="white" stroke-width="12.97" stroke-linejoin="bevel" stroke-miterlimit="22.9256" x1="654.92" y1="411.05" x2="699.91" y2= "411.05" />
  <line fill="none" stroke="white" stroke-width="12.97" stroke-linejoin="bevel" stroke-miterlimit="22.9256" x1="690.71" y1="420.24" x2="653.66" y2= "420.24" />
 </g>
</svg>
