<?xml version="1.0" encoding="UTF-8"?>
<!DOCTYPE svg PUBLIC "-//W3C//DTD SVG 1.1//EN" "http://www.w3.org/Graphics/SVG/1.1/DTD/svg11.dtd">
<!-- Creator: CorelDRAW 2020 (64-Bit) -->
<svg xmlns="http://www.w3.org/2000/svg" xml:space="preserve" width="68.6641mm" height="47.9703mm" version="1.1" shape-rendering="geometricPrecision" text-rendering="geometricPrecision" image-rendering="optimizeQuality" fill-rule="evenodd" clip-rule="evenodd"
viewBox="0 0 10138.74 7083.16"
 xmlns:xlink="http://www.w3.org/1999/xlink"
 xmlns:xodm="http://www.corel.com/coreldraw/odm/2003">
 <g id="Слой_x0020_1">
  <metadata id="CorelCorpID_0Corel-Layer"/>
  <line fill="none" stroke="white" stroke-width="130.22" stroke-linejoin="bevel" stroke-miterlimit="22.9256" x1="9825.25" y1="6100.07" x2="9730.84" y2= "6194.48" />
  <line fill="none" stroke="white" stroke-width="130.22" stroke-linejoin="bevel" stroke-miterlimit="22.9256" x1="2549.46" y1="291.03" x2="3165.92" y2= "291.03" />
  <line fill="none" stroke="white" stroke-width="130.22" stroke-linejoin="bevel" stroke-miterlimit="22.9256" x1="1663.51" y1="291.03" x2="2505.15" y2= "291.03" />
  <line fill="none" stroke="white" stroke-width="130.22" stroke-linejoin="bevel" stroke-miterlimit="22.9256" x1="1246.37" y1="291.03" x2="1619.21" y2= "291.03" />
  <line fill="none" stroke="white" stroke-width="130.22" stroke-linejoin="bevel" stroke-miterlimit="22.9256" x1="2505.15" y1="305.8" x2="2549.45" y2= "305.81" />
  <line fill="none" stroke="white" stroke-width="130.22" stroke-linejoin="bevel" stroke-miterlimit="22.9256" x1="1619.21" y1="305.8" x2="1663.51" y2= "305.8" />
  <path fill="none" stroke="white" stroke-width="130.22" stroke-linejoin="bevel" stroke-miterlimit="22.9256" d="M10052.02 5722.16c21.03,21.03 27.39,52.62 16.12,80.15"/>
  <polyline fill="none" stroke="white" stroke-width="130.22" stroke-linejoin="bevel" stroke-miterlimit="22.9256" points="10066.83,5805.38 10061.21,5815.39 10052.02,5826.56 "/>
  <line fill="none" stroke="white" stroke-width="130.22" stroke-linejoin="bevel" stroke-miterlimit="22.9256" x1="9300.27" y1="6285.97" x2="9195.86" y2= "6390.38" />
  <line fill="none" stroke="white" stroke-width="130.22" stroke-linejoin="bevel" stroke-miterlimit="22.9256" x1="8778.23" y1="5972.74" x2="8882.64" y2= "5868.34" />
  <line fill="none" stroke="white" stroke-width="130.22" stroke-linejoin="bevel" stroke-miterlimit="22.9256" x1="10052.02" y1="5826.56" x2="9825.25" y2= "6053.34" />
  <line fill="none" stroke="white" stroke-width="130.22" stroke-linejoin="bevel" stroke-miterlimit="22.9256" x1="5231.86" y1="2426.38" x2="4767.21" y2= "1961.73" />
  <path fill="none" stroke="white" stroke-width="130.22" stroke-linejoin="bevel" stroke-miterlimit="22.9256" d="M5396.65 2509.57c-62.41,-9.42 -120.16,-38.57 -164.79,-83.19"/>
  <path fill="none" stroke="white" stroke-width="130.22" stroke-linejoin="bevel" stroke-miterlimit="22.9256" d="M5396.65 2509.57c897.7,-854.37 2306.71,-857.77 3208.54,-7.75 901.83,850.02 981.68,2256.79 181.85,3203.41"/>
  <path fill="none" stroke="white" stroke-width="130.22" stroke-linejoin="bevel" stroke-miterlimit="22.9256" d="M8867.12 5852.82c-40.41,-40.41 -68.23,-91.68 -80.07,-147.6"/>
  <line fill="none" stroke="white" stroke-width="130.22" stroke-linejoin="bevel" stroke-miterlimit="22.9256" x1="9119.29" y1="6104.99" x2="8867.12" y2= "5852.82" />
  <line fill="none" stroke="white" stroke-width="130.22" stroke-linejoin="bevel" stroke-miterlimit="22.9256" x1="9712.4" y1="5511.88" x2="9119.29" y2= "6104.99" />
  <path fill="none" stroke="white" stroke-width="130.22" stroke-linejoin="bevel" stroke-miterlimit="22.9256" d="M9712.4 5511.88c-18.93,-31.39 -37.84,-62.8 -54.99,-95.19 -30.62,-57.82 -55.56,-118.8 -75.41,-181.29 -20.44,-64.29 -35.5,-130.2 -45.11,-196.96 -7.37,-51.18 -11.55,-102.89 -11.44,-154.48 0.13,-52.52 4.68,-104.95 9.24,-157.39"/>
  <path fill="none" stroke="white" stroke-width="130.22" stroke-linejoin="bevel" stroke-miterlimit="22.9256" d="M9534.69 4726.56c13.29,-73.24 26.61,-146.46 35.87,-220.25 9.3,-74.05 14.53,-148.68 16.82,-223.35 2.26,-74.67 1.59,-149.4 -2.38,-223.97 -3.93,-74.29 -11.13,-148.44 -21.59,-222.11 -10.54,-74.3 -24.41,-148.1 -41.45,-221.18 -17.11,-73.36 -37.4,-145.97 -60.79,-217.57 -23.39,-71.6 -49.86,-142.19 -79.34,-211.52 -29.38,-69.03 -61.75,-136.82 -97.07,-203.01 -45.51,-85.27 -95.9,-167.97 -150.67,-247.61 -54.96,-79.91 -114.33,-156.77 -177.79,-230.06 -63.27,-73.08 -130.65,-142.64 -201.8,-208.05 -71.19,-65.46 -146.17,-126.79 -224.29,-183.8 -78.39,-57.17 -159.96,-110.02 -244.18,-158.19 -83.96,-48.02 -170.57,-91.41 -259.39,-129.69 -89.16,-38.44 -180.53,-71.72 -273.46,-99.77 -93.25,-28.16 -188.06,-51.05 -283.86,-68.65 -95.5,-17.56 -191.98,-29.86 -288.83,-36.31 -81.71,-5.46 -163.69,-6.72 -245.57,-4.31 -82.08,2.39 -164.11,8.49 -245.48,18.97 -81.26,10.47 -161.88,25.31 -242.51,40.15"/>
  <path fill="none" stroke="white" stroke-width="130.22" stroke-linejoin="bevel" stroke-miterlimit="22.9256" d="M6509.51 1666.64c-56.49,4.8 -113,9.6 -169.63,11.92 -56.86,2.33 -113.86,2.17 -170.72,-0.41 -56.72,-2.57 -113.3,-7.56 -169.47,-15.68 -55.9,-8.09 -111.39,-19.25 -165.94,-33.95 -46.05,-12.4 -91.43,-27.32 -135.87,-44.67 -44.56,-17.36 -88.18,-37.18 -130.54,-59.42 -42.22,-22.15 -83.2,-46.7 -122.54,-73.62 -39.31,-26.93 -76.99,-56.23 -112.96,-87.47 -36.12,-31.38 -70.49,-64.69 -103.06,-99.7 -32.47,-34.91 -63.14,-71.5 -92.08,-109.41 -43.13,-56.49 -82.41,-115.91 -117.8,-177.54 -35.41,-61.63 -66.92,-125.49 -94.85,-190.83 -19.17,-44.78 -36.68,-90.28 -56.66,-134.66 -19.95,-44.28 -42.35,-87.44 -64.76,-130.63"/>
  <line fill="none" stroke="white" stroke-width="130.22" stroke-linejoin="bevel" stroke-miterlimit="22.9256" x1="4802.62" y1="520.55" x2="4716.32" y2= "434.24" />
  <line fill="none" stroke="white" stroke-width="130.22" stroke-linejoin="bevel" stroke-miterlimit="22.9256" x1="3165.92" y1="434.26" x2="4716.32" y2= "434.24" />
  <line fill="none" stroke="white" stroke-width="130.22" stroke-linejoin="bevel" stroke-miterlimit="22.9256" x1="3165.92" y1="581.92" x2="3165.92" y2= "434.26" />
  <path fill="none" stroke="white" stroke-width="130.22" stroke-linejoin="bevel" stroke-miterlimit="22.9256" d="M3165.92 581.92c0.01,244.64 -198.32,442.97 -442.97,442.97"/>
  <line fill="none" stroke="white" stroke-width="130.22" stroke-linejoin="bevel" stroke-miterlimit="22.9256" x1="1689.34" y1="1024.89" x2="2722.94" y2= "1024.89" />
  <path fill="none" stroke="white" stroke-width="130.22" stroke-linejoin="bevel" stroke-miterlimit="22.9256" d="M1689.34 1024.89c-117.48,0 -230.15,-46.67 -313.21,-129.75 -83.09,-83.07 -129.76,-195.73 -129.76,-313.23"/>
  <line fill="none" stroke="white" stroke-width="130.22" stroke-linejoin="bevel" stroke-miterlimit="22.9256" x1="1246.37" y1="434.26" x2="1246.37" y2= "581.92" />
  <line fill="none" stroke="white" stroke-width="130.22" stroke-linejoin="bevel" stroke-miterlimit="22.9256" x1="138.95" y1="434.26" x2="1246.37" y2= "434.26" />
  <line fill="none" stroke="white" stroke-width="130.22" stroke-linejoin="bevel" stroke-miterlimit="22.9256" x1="138.95" y1="914.47" x2="138.95" y2= "434.26" />
  <path fill="none" stroke="white" stroke-width="130.22" stroke-linejoin="bevel" stroke-miterlimit="22.9256" d="M138.95 914.47c10.44,32.5 20.89,64.97 33.44,96.67 12.54,31.67 27.2,62.56 43.85,92.32 17.73,31.66 37.76,62.03 60.17,90.54 22.41,28.5 47.21,55.14 74.24,79.28 27.05,24.14 56.33,45.76 87.09,64.95 30.8,19.22 63.06,36 96.32,50.56 36.25,15.84 73.65,29.06 111.61,40.18 38.14,11.18 76.86,20.24 115.88,27.67 38.98,7.44 78.26,13.23 117.65,17.93 70.98,8.48 142.36,13.45 213.79,15.86 71.57,2.41 143.21,2.23 214.78,0.35 71.55,-1.88 143.06,-5.46 214.5,-10.14 106.52,-7 212.85,-16.45 318.91,-28.69 106.03,-12.24 211.76,-27.3 316.96,-45.33 105.1,-18.03 209.67,-39.04 313.9,-61.56 104.26,-22.52 208.17,-46.57 312.09,-70.62 67.45,-15.62 134.9,-31.24 202.62,-45.7 67.7,-14.47 135.65,-27.77 204.05,-38.7 68.23,-10.9 136.88,-19.45 205.85,-24.01 46.13,-3.04 92.37,-4.31 138.59,-3.29 46.31,1.02 92.57,4.33 138.52,10.26 45.77,5.91 91.22,14.43 135.9,25.96 44.96,11.59 89.13,26.24 132.27,43.46 43.31,17.28 85.58,37.14 126.62,59.24 40.96,22.05 80.68,46.32 119.17,72.4 60.41,40.92 117.77,86.28 172.45,134.56 54.91,48.51 107.13,99.95 157.27,153.33 50.1,53.35 98.15,108.59 144.28,165.36 35.94,44.19 70.71,89.3 105.49,134.44"/>
  <line fill="none" stroke="white" stroke-width="130.22" stroke-linejoin="bevel" stroke-miterlimit="22.9256" x1="9534.69" y1="4726.56" x2="9825.28" y2= "4775.05" />
  <path fill="none" stroke="white" stroke-width="130.22" stroke-linejoin="bevel" stroke-miterlimit="22.9256" d="M9825.25 4775.05c0,-83.26 0,-166.5 0,-250.32 0,-83.84 0,-168.24 0,-252.73 0,-87.16 0,-174.4 0,-261.37 0,-86.98 0,-173.67 0,-259.85 0,-85.43 0,-170.37 0,-254.25 0,-84.43 0,-167.78 0,-251.15"/>
  <path fill="none" stroke="white" stroke-width="130.22" stroke-linejoin="bevel" stroke-miterlimit="22.9256" d="M9673.89 2879.96c14.97,16.11 29.94,32.2 43.74,49.72 14.13,17.98 27.02,37.48 38.64,57.76 11.34,19.77 21.5,40.34 30.2,61.51 8.98,21.82 16.39,44.28 22.33,67.01 5.54,21.25 9.79,42.72 12.31,64.07 2.58,21.88 3.37,43.63 4.15,65.35"/>
  <path fill="none" stroke="white" stroke-width="130.22" stroke-linejoin="bevel" stroke-miterlimit="22.9256" d="M9673.89 2879.96c-59.59,-59.61 -119.2,-119.2 -179.55,-179.57 -60.35,-60.33 -121.43,-121.42 -182.9,-182.89 -63.29,-63.29 -126.97,-126.97 -190.86,-190.86 -63.89,-63.89 -127.97,-127.97 -191.92,-191.94 -50.81,-50.79 -101.51,-101.5 -152.01,-152 -50.51,-50.51 -100.81,-100.81 -150.8,-150.8 -50.99,-51 -101.69,-101.69 -151.84,-151.85 -50.16,-50.16 -99.8,-99.79 -149.44,-149.43"/>
  <path fill="none" stroke="white" stroke-width="130.22" stroke-linejoin="bevel" stroke-miterlimit="22.9256" d="M7959.13 1379.27c21.97,0.8 43.97,1.61 66.09,4.24 22.74,2.73 45.63,7.38 68.22,13.53 22.02,5.98 43.75,13.35 64.88,22.18 21.79,9.1 42.92,19.74 63.2,31.63 18.93,11.1 37.09,23.27 53.94,36.56 17.29,13.64 33.19,28.44 49.1,43.23"/>
  <path fill="none" stroke="white" stroke-width="130.22" stroke-linejoin="bevel" stroke-miterlimit="22.9256" d="M7959.13 1379.27c-84.3,0 -168.58,0 -253.94,0 -85.35,0 -171.75,0 -258.7,0 -89.55,0 -179.67,0 -270.06,0 -90.38,0 -181.03,0 -271.57,0 -79.1,0 -158.13,0 -236.62,0 -78.98,0 -157.45,0 -235.91,0"/>
  <line fill="none" stroke="white" stroke-width="130.22" stroke-linejoin="bevel" stroke-miterlimit="22.9256" x1="6477.16" y1="1669.97" x2="6432.34" y2= "1379.41" />
  <path fill="none" stroke="white" stroke-width="130.22" stroke-linejoin="bevel" stroke-miterlimit="22.9256" d="M5695.47 1346.93c0.19,0.18 0.38,0.35 0.59,0.52 12.62,11.02 26.33,21.2 40.78,30.4 14.46,9.2 29.68,17.44 45.42,24.6 18.72,8.51 38.23,15.47 58.06,21.09 19.86,5.61 40.06,9.85 60.36,12.85 30.77,4.56 61.78,6.3 92.52,5.88 30.8,-0.43 61.34,-3.01 91.52,-7.16 42.2,-5.76 83.74,-14.57 124.24,-26 40.55,-11.47 80.06,-25.59 119.57,-39.68"/>
  <path fill="none" stroke="white" stroke-width="130.22" stroke-linejoin="bevel" stroke-miterlimit="22.9256" d="M5509.97 1227.9c19.12,17.5 38.26,35.01 58.96,50.69 18.91,14.34 39.14,27.17 60.17,38.21 21.56,11.31 43.96,20.72 66.37,30.12"/>
  <path fill="none" stroke="white" stroke-width="130.22" stroke-linejoin="bevel" stroke-miterlimit="22.9256" d="M4802.62 520.55c25.04,25.04 50.07,50.07 74.77,74.79 24.73,24.72 49.16,49.14 73.47,73.46 24.38,24.39 48.67,48.67 73.12,73.12 24.44,24.44 49.02,49.02 73.87,73.87 49.54,49.54 100.08,100.1 151.19,151.19 26.03,26.03 52.2,52.2 78.51,78.51 26.31,26.31 52.76,52.77 79.22,79.22 34.4,34.4 68.79,68.81 103.2,103.2"/>
  <line fill="none" stroke="white" stroke-width="130.22" stroke-linejoin="bevel" stroke-miterlimit="22.9256" x1="6302.05" y1="1379.27" x2="6168.17" y2= "1417.63" />
  <path fill="none" stroke="white" stroke-width="130.22" stroke-linejoin="bevel" stroke-miterlimit="22.9256" d="M4498.54 1693.05c-18.04,-16.61 -36.1,-33.22 -55.36,-48 -19.89,-15.28 -41.03,-28.6 -62.67,-40.28 -20.89,-11.31 -42.2,-21.07 -63.79,-29.37 -22.13,-8.48 -44.52,-15.42 -66.77,-20.32 -39.23,-8.67 -78.04,-11.03 -116.84,-13.39"/>
  <path fill="none" stroke="white" stroke-width="130.22" stroke-linejoin="bevel" stroke-miterlimit="22.9256" d="M4498.54 1693.05c44.89,44.87 89.75,89.75 134.47,134.46 44.84,44.84 89.52,89.54 134.21,134.22"/>
  <line fill="none" stroke="white" stroke-width="130.22" stroke-linejoin="bevel" stroke-miterlimit="22.9256" x1="65.12" y1="924.92" x2="138.95" y2= "914.47" />
  <path fill="none" stroke="white" stroke-width="130.22" stroke-linejoin="bevel" stroke-miterlimit="22.9256" d="M65.12 1467.86c0,-37.77 0,-75.54 0,-114.15 0,-38.6 0,-78.05 0,-118.29 0,-41.06 0,-82.97 0,-125.69 0,-42.69 0,-86.19 0,-130.43 0,-18.06 0,-36.22 0,-54.38"/>
  <line fill="none" stroke="white" stroke-width="130.22" stroke-linejoin="bevel" stroke-miterlimit="22.9256" x1="138.95" y1="1541.69" x2="65.12" y2= "1467.86" />
  <path fill="none" stroke="white" stroke-width="130.22" stroke-linejoin="bevel" stroke-miterlimit="22.9256" d="M4133.11 1541.69c-42.53,0 -85.05,0 -128.52,0 -43.46,0 -87.87,0 -133.3,0 -45.24,0 -91.52,0 -138.92,0 -40.64,0 -82.1,0 -123.87,0 -42.04,0 -84.34,0 -126.59,0 -42.16,0 -84.24,0 -126.17,0 -81.85,0 -163.12,0 -243.9,0 -80.93,0 -161.37,0 -241.7,0 -80.34,0 -160.56,0 -241.02,0 -120.22,0 -240.93,0 -362.19,0 -121.21,0 -242.97,0 -365.14,0 -103.74,0 -207.78,0 -312.06,-0.01 -104.29,0.01 -208.8,0.01 -313.45,0.01 -104.41,0 -208.93,0 -312.99,0 -68.34,0 -136.46,0 -203.9,0 -67.61,0 -134.52,0 -200.05,0 -65.18,0 -128.99,0 -190.71,0 -39.82,0 -78.76,0 -116.9,0 -38.15,0 -75.47,0 -112.8,0"/>
  <path fill="none" stroke="white" stroke-width="130.22" stroke-linejoin="bevel" stroke-miterlimit="22.9256" d="M5396.65 2509.57c14.44,1.58 28.88,3.16 43.88,3.31 15.33,0.15 31.21,-1.21 47.55,-3.84 23.54,-3.78 47.94,-10.2 71.39,-21.11 21.97,-10.22 43.07,-24.39 64.19,-38.55"/>
  <path fill="none" stroke="white" stroke-width="130.22" stroke-linejoin="bevel" stroke-miterlimit="22.9256" d="M5623.65 2449.37c867.71,-684.88 2106.23,-630.55 2910.65,127.66 804.42,758.2 931.83,1991.35 299.42,2898.02"/>
  <path fill="none" stroke="white" stroke-width="130.22" stroke-linejoin="bevel" stroke-miterlimit="22.9256" d="M8833.72 5475.05c-12.98,22.07 -25.97,44.15 -34.89,66.89 -8.87,22.59 -13.7,45.82 -16.26,68.19 -1.89,16.71 -2.5,32.94 -1.58,48.49 0.93,16.01 3.48,31.3 6.05,46.6"/>
  <path fill="none" stroke="white" stroke-width="130.22" stroke-linejoin="bevel" stroke-miterlimit="22.9256" d="M9825.25 5622.78c-13.35,-8.93 -26.71,-17.88 -39.42,-28.04 -13.1,-10.47 -25.52,-22.22 -36.81,-35.01 -13.24,-15 -24.92,-31.42 -36.62,-47.86"/>
  <path fill="none" stroke="white" stroke-width="130.22" stroke-linejoin="bevel" stroke-miterlimit="22.9256" d="M9825.25 5622.78c0,-49.42 0,-98.84 0,-149.58 0,-50.97 0,-103.26 0,-156.75 0,-3.69 0,-7.41 0,-11.1"/>
  <path fill="none" stroke="white" stroke-width="130.22" stroke-linejoin="bevel" stroke-miterlimit="22.9256" d="M9825.25 4899.99c-10.71,39.51 -21.4,79.01 -28.08,119.63 -6.87,41.74 -9.46,84.64 -7.18,127.68 1.06,19.73 3.15,39.48 6.42,59.2 3.32,20.08 7.88,40.12 14.25,59.67 4.33,13.2 9.45,26.19 14.59,39.19"/>
  <line fill="none" stroke="white" stroke-width="130.22" stroke-linejoin="bevel" stroke-miterlimit="22.9256" x1="9825.25" y1="4899.99" x2="9825.25" y2= "4775.05" />
  <line fill="none" stroke="white" stroke-width="130.22" stroke-linejoin="bevel" stroke-miterlimit="22.9256" x1="9119.29" y1="6104.99" x2="9484.72" y2= "6470.42" />
  <line fill="none" stroke="white" stroke-width="130.22" stroke-linejoin="bevel" stroke-miterlimit="22.9256" x1="9484.72" y1="6470.42" x2="9745.75" y2= "6209.39" />
  <line fill="none" stroke="white" stroke-width="130.22" stroke-linejoin="bevel" stroke-miterlimit="22.9256" x1="9729.92" y1="6193.58" x2="9745.75" y2= "6209.39" />
  <line fill="none" stroke="white" stroke-width="130.22" stroke-linejoin="bevel" stroke-miterlimit="22.9256" x1="9825.25" y1="6098.25" x2="9729.92" y2= "6193.58" />
  <line fill="none" stroke="white" stroke-width="130.22" stroke-linejoin="bevel" stroke-miterlimit="22.9256" x1="9825.25" y1="6098.25" x2="9825.25" y2= "5622.78" />
  <line fill="none" stroke="white" stroke-width="130.22" stroke-linejoin="bevel" stroke-miterlimit="22.9256" x1="4347.17" y1="65.12" x2="3165.93" y2= "65.12" />
  <line fill="none" stroke="white" stroke-width="130.22" stroke-linejoin="bevel" stroke-miterlimit="22.9256" x1="3165.93" y1="65.12" x2="3165.92" y2= "434.26" />
  <line fill="none" stroke="white" stroke-width="130.22" stroke-linejoin="bevel" stroke-miterlimit="22.9256" x1="4716.32" y1="434.24" x2="4347.17" y2= "65.12" />
  <line fill="none" stroke="white" stroke-width="130.22" stroke-linejoin="bevel" stroke-miterlimit="22.9256" x1="1246.37" y1="65.12" x2="138.95" y2= "65.12" />
  <line fill="none" stroke="white" stroke-width="130.22" stroke-linejoin="bevel" stroke-miterlimit="22.9256" x1="138.95" y1="434.26" x2="138.95" y2= "65.12" />
  <line fill="none" stroke="white" stroke-width="130.22" stroke-linejoin="bevel" stroke-miterlimit="22.9256" x1="1246.37" y1="434.26" x2="1246.37" y2= "65.12" />
  <line fill="none" stroke="white" stroke-width="130.22" stroke-linejoin="bevel" stroke-miterlimit="22.9256" x1="138.95" y1="65.12" x2="65.12" y2= "138.95" />
  <line fill="none" stroke="white" stroke-width="130.22" stroke-linejoin="bevel" stroke-miterlimit="22.9256" x1="138.95" y1="434.26" x2="65.12" y2= "434.26" />
  <line fill="none" stroke="white" stroke-width="130.22" stroke-linejoin="bevel" stroke-miterlimit="22.9256" x1="65.12" y1="138.95" x2="65.12" y2= "434.26" />
  <line fill="none" stroke="white" stroke-width="130.22" stroke-linejoin="bevel" stroke-miterlimit="22.9256" x1="65.12" y1="434.26" x2="65.12" y2= "924.92" />
  <line fill="none" stroke="white" stroke-width="130.22" stroke-linejoin="bevel" stroke-miterlimit="22.9256" x1="9825.25" y1="6100.07" x2="9825.25" y2= "6098.25" />
  <line fill="none" stroke="white" stroke-width="130.22" stroke-linejoin="bevel" stroke-miterlimit="22.9256" x1="4461.28" y1="3733.75" x2="4183.02" y2= "3682.95" />
  <path fill="none" stroke="white" stroke-width="130.22" stroke-linejoin="bevel" stroke-miterlimit="22.9256" d="M4295.05 2886.24c160.4,251.39 219.79,554.16 166.23,847.51"/>
  <path fill="none" stroke="white" stroke-width="130.22" stroke-linejoin="bevel" stroke-miterlimit="22.9256" d="M4183.02 2775.45c13.3,8.98 26.62,17.96 39.31,28.17 13.02,10.5 25.38,22.3 36.62,35.11 13.05,14.91 24.58,31.2 36.1,47.5"/>
  <path fill="none" stroke="white" stroke-width="130.22" stroke-linejoin="bevel" stroke-miterlimit="22.9256" d="M4183.02 2775.45c0,72.28 0,144.57 0,219.94 0,38.32 0,77.42 0,117.2 0,39.76 0,80.21 0,121.39 0,51.47 0,104.1 0,157.49 0,54.93 0,110.67 0,165.95 0,42.02 0,83.78 0,125.54"/>
  <line fill="none" stroke="white" stroke-width="130.22" stroke-linejoin="bevel" stroke-miterlimit="22.9256" x1="7467.32" y1="6739.78" x2="7518.11" y2= "7018.04" />
  <path fill="none" stroke="white" stroke-width="130.22" stroke-linejoin="bevel" stroke-miterlimit="22.9256" d="M8314.81 6906c13.69,9.54 27.36,19.06 40.15,29.66 13.16,10.9 25.35,22.95 36.24,35.75 12.65,14.87 23.54,30.76 34.42,46.63"/>
  <path fill="none" stroke="white" stroke-width="130.22" stroke-linejoin="bevel" stroke-miterlimit="22.9256" d="M7467.32 6739.78c293.35,-53.56 596.12,5.83 847.49,166.22"/>
  <path fill="none" stroke="white" stroke-width="130.22" stroke-linejoin="bevel" stroke-miterlimit="22.9256" d="M7518.11 7018.04c47.31,0 94.62,0 142.19,0 54.4,0 109.15,0 163.04,0 55.61,0 110.29,0 163.71,0 38.61,0 76.57,0 113.92,0 37.39,0 74.15,0 110.23,0 73.42,0 143.91,0 214.41,0"/>
  <path fill="none" stroke="white" stroke-width="130.22" stroke-linejoin="bevel" stroke-miterlimit="22.9256" d="M9085.02 6866.66c-96.92,96.92 -228.37,151.38 -365.44,151.38"/>
  <line fill="none" stroke="white" stroke-width="130.22" stroke-linejoin="bevel" stroke-miterlimit="22.9256" x1="9085.02" y1="6866.66" x2="9378.59" y2= "6573.09" />
  <line fill="none" stroke="white" stroke-width="130.22" stroke-linejoin="bevel" stroke-miterlimit="22.9256" x1="9378.59" y1="6573.09" x2="9232.41" y2= "6426.92" />
  <path fill="none" stroke="white" stroke-width="130.22" stroke-linejoin="bevel" stroke-miterlimit="22.9256" d="M9232.41 6426.92c-110.7,-15.81 -213.28,-67.11 -292.35,-146.18"/>
  <line fill="none" stroke="white" stroke-width="130.22" stroke-linejoin="bevel" stroke-miterlimit="22.9256" x1="8940.06" y1="6280.74" x2="8314.81" y2= "6906" />
  <line fill="none" stroke="white" stroke-width="130.22" stroke-linejoin="bevel" stroke-miterlimit="22.9256" x1="8425.61" y1="7018.04" x2="8719.58" y2= "7018.04" />
  <line fill="none" stroke="white" stroke-width="130.22" stroke-linejoin="bevel" stroke-miterlimit="22.9256" x1="8567.77" y1="5908.47" x2="8640.86" y2= "5835.38" />
  <line fill="none" stroke="white" stroke-width="130.22" stroke-linejoin="bevel" stroke-miterlimit="22.9256" x1="8567.77" y1="5908.47" x2="8940.06" y2= "6280.74" />
  <line fill="none" stroke="white" stroke-width="130.22" stroke-linejoin="bevel" stroke-miterlimit="22.9256" x1="9232.41" y1="6426.92" x2="8640.86" y2= "5835.38" />
  <path fill="none" stroke="white" stroke-width="130.22" stroke-linejoin="bevel" stroke-miterlimit="22.9256" d="M4476.87 4740.4c-71.13,-331.28 -76.44,-673.33 -15.59,-1006.65"/>
  <path fill="none" stroke="white" stroke-width="130.22" stroke-linejoin="bevel" stroke-miterlimit="22.9256" d="M6460.65 6724.17c-993.89,-213.47 -1770.29,-989.86 -1983.77,-1983.77"/>
  <path fill="none" stroke="white" stroke-width="130.22" stroke-linejoin="bevel" stroke-miterlimit="22.9256" d="M7467.32 6739.78c-333.32,60.85 -675.37,55.53 -1006.67,-15.61"/>
  <path fill="none" stroke="white" stroke-width="130.22" stroke-linejoin="bevel" stroke-miterlimit="22.9256" d="M8567.77 5908.47c-915.1,836.94 -2326.83,805.44 -3203.73,-71.47 -876.89,-876.89 -908.39,-2288.61 -71.45,-3203.73"/>
  <line fill="none" stroke="white" stroke-width="130.22" stroke-linejoin="bevel" stroke-miterlimit="22.9256" x1="4920.3" y1="2260.98" x2="5292.59" y2= "2633.27" />
  <line fill="none" stroke="white" stroke-width="130.22" stroke-linejoin="bevel" stroke-miterlimit="22.9256" x1="4295.05" y1="2886.24" x2="4920.3" y2= "2260.98" />
  <path fill="none" stroke="white" stroke-width="130.22" stroke-linejoin="bevel" stroke-miterlimit="22.9256" d="M8498.02 5832.19c40.81,-37.31 103.76,-35.91 142.84,3.19"/>
  <line fill="none" stroke="white" stroke-width="130.22" stroke-linejoin="bevel" stroke-miterlimit="22.9256" x1="8567.77" y1="5908.47" x2="8498.02" y2= "5832.19" />
  <path fill="none" stroke="white" stroke-width="130.22" stroke-linejoin="bevel" stroke-miterlimit="22.9256" d="M8498.02 5832.19c-874.31,799.62 -2223.1,769.53 -3060.89,-68.28 -837.79,-837.78 -867.88,-2186.57 -68.26,-3060.87"/>
  <line fill="none" stroke="white" stroke-width="130.22" stroke-linejoin="bevel" stroke-miterlimit="22.9256" x1="5292.59" y1="2633.27" x2="5368.87" y2= "2703.04" />
  <line fill="none" stroke="white" stroke-width="130.22" stroke-linejoin="bevel" stroke-miterlimit="22.9256" x1="6460.65" y1="6724.17" x2="6397.55" y2= "7018.04" />
  <path fill="none" stroke="white" stroke-width="130.22" stroke-linejoin="bevel" stroke-miterlimit="22.9256" d="M6397.55 7018.04c56.39,0 112.81,0 169.54,0 56.74,0 113.81,0 171.02,0 58.01,0 116.16,0 174.37,0 58.22,0 116.5,0 174.74,0 72.06,0 144.07,0 215.68,0 72.01,0 143.61,0 215.21,0"/>
  <path fill="none" stroke="white" stroke-width="130.22" stroke-linejoin="bevel" stroke-miterlimit="22.9256" d="M5365.68 2560.2c39.08,39.08 40.5,102.03 3.19,142.84"/>
  <line fill="none" stroke="white" stroke-width="130.22" stroke-linejoin="bevel" stroke-miterlimit="22.9256" x1="5292.59" y1="2633.27" x2="5365.68" y2= "2560.2" />
  <line fill="none" stroke="white" stroke-width="130.22" stroke-linejoin="bevel" stroke-miterlimit="22.9256" x1="5365.68" y1="2560.2" x2="5231.86" y2= "2426.38" />
  <path fill="none" stroke="white" stroke-width="130.22" stroke-linejoin="bevel" stroke-miterlimit="22.9256" d="M4920.3 2260.98c-79.06,-79.06 -130.35,-181.63 -146.18,-292.35"/>
  <line fill="none" stroke="white" stroke-width="130.22" stroke-linejoin="bevel" stroke-miterlimit="22.9256" x1="4476.87" y1="4740.4" x2="4183.02" y2= "4803.51" />
  <path fill="none" stroke="white" stroke-width="130.22" stroke-linejoin="bevel" stroke-miterlimit="22.9256" d="M4334.39 5517.34c-14.97,-16.11 -29.94,-32.22 -43.72,-49.73 -14.15,-17.98 -27.02,-37.46 -38.67,-57.75 -11.33,-19.79 -21.48,-40.35 -30.18,-61.53 -8.98,-21.84 -16.4,-44.3 -22.33,-67.04 -5.54,-21.23 -9.79,-42.72 -12.31,-64.04 -2.58,-21.88 -3.37,-43.62 -4.15,-65.35"/>
  <path fill="none" stroke="white" stroke-width="130.22" stroke-linejoin="bevel" stroke-miterlimit="22.9256" d="M4334.39 5517.34c37.14,37.12 74.26,74.26 111.67,111.67 63.85,63.83 128.54,128.52 193.73,193.73 65.19,65.18 130.85,130.84 196.83,196.81 68.45,68.47 137.25,137.25 205.95,205.97 68.7,68.69 137.34,137.32 205.61,205.6 73.64,73.64 146.86,146.87 219.05,219.05 72.87,72.88 144.69,144.69 216.49,216.51"/>
  <path fill="none" stroke="white" stroke-width="130.22" stroke-linejoin="bevel" stroke-miterlimit="22.9256" d="M6049.16 7018.04c-21.99,-0.8 -43.96,-1.61 -66.08,-4.24 -22.71,-2.72 -45.6,-7.38 -68.16,-13.5 -22.02,-5.98 -43.75,-13.35 -64.88,-22.16 -21.78,-9.08 -42.91,-19.74 -63.17,-31.61 -18.96,-11.09 -37.14,-23.29 -54,-36.57 -17.32,-13.64 -33.22,-28.47 -49.16,-43.28"/>
  <path fill="none" stroke="white" stroke-width="130.22" stroke-linejoin="bevel" stroke-miterlimit="22.9256" d="M6049.16 7018.04c57.39,0 114.79,0 172.77,0 58.13,0 116.89,0 175.62,0"/>
  <path fill="none" stroke="white" stroke-width="130.22" stroke-linejoin="bevel" stroke-miterlimit="22.9256" d="M4183.02 4803.51c0,58.59 0,117.17 0,175.17 0,58.15 0,115.69 0,173.23"/>
  <line fill="none" stroke="white" stroke-width="130.22" stroke-linejoin="bevel" stroke-miterlimit="22.9256" x1="4627.96" y1="1822.47" x2="4334.39" y2= "2116.03" />
  <path fill="none" stroke="white" stroke-width="130.22" stroke-linejoin="bevel" stroke-miterlimit="22.9256" d="M4183.02 2481.48c0,-137.07 54.44,-268.53 151.36,-365.45"/>
  <line fill="none" stroke="white" stroke-width="130.22" stroke-linejoin="bevel" stroke-miterlimit="22.9256" x1="4183.02" y1="2481.48" x2="4183.02" y2= "2775.45" />
  <path fill="none" stroke="white" stroke-width="130.22" stroke-linejoin="bevel" stroke-miterlimit="22.9256" d="M4183.02 3682.95c0,54.94 0,109.87 0,165.08 0,55.21 0,110.67 0,166.23 0,56.3 0,112.71 0,169.11 0,56.42 0,112.82 0,169.19 0,75.57 0,151.04 0,225.94 0,75.36 0,150.18 0,225"/>
  <line fill="none" stroke="white" stroke-width="130.22" stroke-linejoin="bevel" stroke-miterlimit="22.9256" x1="2549.45" y1="1024.89" x2="2549.46" y2= "291.03" />
  <line fill="none" stroke="white" stroke-width="130.22" stroke-linejoin="bevel" stroke-miterlimit="22.9256" x1="1663.51" y1="1024.13" x2="1663.51" y2= "291.03" />
  <line fill="none" stroke="white" stroke-width="130.22" stroke-linejoin="bevel" stroke-miterlimit="22.9256" x1="2505.15" y1="1024.89" x2="2505.15" y2= "291.03" />
  <line fill="none" stroke="white" stroke-width="130.22" stroke-linejoin="bevel" stroke-miterlimit="22.9256" x1="1619.21" y1="1019.29" x2="1619.21" y2= "291.03" />
  <path fill="none" stroke="white" stroke-width="130.22" stroke-linejoin="bevel" stroke-miterlimit="22.9256" d="M9958.84 5733.38c5.51,-6.17 11.02,-12.34 14.78,-19.56 1.89,-3.59 3.34,-7.44 4.1,-11.46 0.35,-1.79 0.56,-3.6 0.56,-5.42 0.01,-1.85 -0.18,-3.71 -0.62,-5.35 -0.27,-1 -0.62,-1.89 -1.05,-2.67 -0.44,-0.78 -0.96,-1.43 -1.52,-1.89 -0.52,-0.4 -1.06,-0.65 -1.62,-0.74 -0.58,-0.1 -1.17,-0.04 -1.76,0.13 -0.95,0.32 -1.86,0.93 -2.78,1.71 -1.48,1.27 -2.88,2.98 -4.28,4.84 -2.66,3.53 -5.3,7.59 -8.25,11.53 -3.69,4.93 -7.91,9.63 -12.11,14.32"/>
  <line fill="none" stroke="white" stroke-width="130.22" stroke-linejoin="bevel" stroke-miterlimit="22.9256" x1="9966.13" y1="5740.67" x2="9958.84" y2= "5733.38" />
  <path fill="none" stroke="white" stroke-width="130.22" stroke-linejoin="bevel" stroke-miterlimit="22.9256" d="M9979.29 5753.83c5.45,-6.22 10.93,-12.43 14.63,-19.71 1.85,-3.63 3.26,-7.52 4.02,-11.55 0.34,-1.79 0.55,-3.6 0.58,-5.42 0.01,-1.83 -0.15,-3.65 -0.55,-5.26 -0.22,-0.96 -0.55,-1.83 -0.93,-2.57 -0.4,-0.72 -0.87,-1.33 -1.37,-1.73 -0.46,-0.35 -0.97,-0.55 -1.48,-0.59 -0.52,-0.04 -1.05,0.07 -1.59,0.31 -0.86,0.38 -1.7,1.06 -2.54,1.95 -1.36,1.37 -2.66,3.17 -3.99,5.14 -2.51,3.68 -5.04,7.84 -7.93,11.84 -3.63,4.99 -7.83,9.72 -12,14.43"/>
  <line fill="none" stroke="white" stroke-width="130.22" stroke-linejoin="bevel" stroke-miterlimit="22.9256" x1="9985.8" y1="5760.34" x2="9979.29" y2= "5753.83" />
  <path fill="none" stroke="white" stroke-width="130.22" stroke-linejoin="bevel" stroke-miterlimit="22.9256" d="M9997.43 5771.98c5.43,-6.25 10.87,-12.49 14.53,-19.82 1.82,-3.66 3.2,-7.57 3.97,-11.59 0.32,-1.8 0.55,-3.6 0.61,-5.39 0.03,-1.82 -0.09,-3.59 -0.43,-5.15 -0.21,-0.93 -0.49,-1.76 -0.83,-2.45 -0.35,-0.68 -0.77,-1.23 -1.21,-1.57 -0.41,-0.31 -0.86,-0.44 -1.31,-0.43 -0.47,0.01 -0.93,0.19 -1.42,0.47 -0.78,0.47 -1.54,1.26 -2.3,2.19 -1.24,1.51 -2.45,3.4 -3.71,5.43 -2.35,3.82 -4.8,8.08 -7.63,12.14 -3.56,5.06 -7.72,9.8 -11.9,14.53"/>
  <line fill="none" stroke="white" stroke-width="130.22" stroke-linejoin="bevel" stroke-miterlimit="22.9256" x1="10003.15" y1="5777.69" x2="9997.43" y2= "5771.98" />
  <path fill="none" stroke="white" stroke-width="130.22" stroke-linejoin="bevel" stroke-miterlimit="22.9256" d="M10013.19 5787.73c5.39,-6.28 10.79,-12.57 14.41,-19.93 1.8,-3.66 3.16,-7.62 3.94,-11.62 0.35,-1.77 0.59,-3.56 0.66,-5.33 0.07,-1.79 -0.01,-3.51 -0.3,-5.01 -0.16,-0.89 -0.4,-1.67 -0.69,-2.32 -0.3,-0.63 -0.65,-1.12 -1.03,-1.4 -0.35,-0.25 -0.75,-0.32 -1.14,-0.27 -0.41,0.07 -0.83,0.31 -1.26,0.65 -0.68,0.58 -1.36,1.42 -2.07,2.44 -1.11,1.62 -2.24,3.6 -3.41,5.71 -2.21,3.96 -4.56,8.31 -7.35,12.4 -3.48,5.14 -7.66,9.89 -11.81,14.63"/>
  <line fill="none" stroke="white" stroke-width="130.22" stroke-linejoin="bevel" stroke-miterlimit="22.9256" x1="10018.03" y1="5792.57" x2="10013.19" y2= "5787.73" />
  <path fill="none" stroke="white" stroke-width="130.22" stroke-linejoin="bevel" stroke-miterlimit="22.9256" d="M10026.39 5800.93c5.36,-6.3 10.75,-12.62 14.34,-20.01 1.8,-3.68 3.15,-7.63 3.96,-11.61 0.35,-1.77 0.62,-3.54 0.72,-5.27 0.1,-1.74 0.07,-3.44 -0.15,-4.86 -0.1,-0.84 -0.31,-1.58 -0.53,-2.17 -0.25,-0.58 -0.55,-1 -0.86,-1.21 -0.31,-0.19 -0.63,-0.21 -0.96,-0.09 -0.35,0.13 -0.71,0.43 -1.09,0.83 -0.59,0.65 -1.18,1.58 -1.83,2.66 -0.99,1.73 -2.04,3.81 -3.13,5.99 -2.07,4.1 -4.36,8.52 -7.1,12.65 -3.43,5.21 -7.59,9.97 -11.72,14.72"/>
  <line fill="none" stroke="white" stroke-width="130.22" stroke-linejoin="bevel" stroke-miterlimit="22.9256" x1="10030.33" y1="5804.87" x2="10026.39" y2= "5800.93" />
  <path fill="none" stroke="white" stroke-width="130.22" stroke-linejoin="bevel" stroke-miterlimit="22.9256" d="M10036.93 5811.47c5.35,-6.32 10.71,-12.65 14.29,-20.07 1.77,-3.68 3.13,-7.63 3.99,-11.56 0.38,-1.74 0.66,-3.48 0.81,-5.18 0.15,-1.7 0.18,-3.32 0.04,-4.68 -0.07,-0.8 -0.22,-1.48 -0.4,-2.01 -0.18,-0.53 -0.41,-0.89 -0.66,-1.02 -0.24,-0.15 -0.5,-0.1 -0.78,0.09 -0.3,0.19 -0.59,0.53 -0.9,0.99 -0.52,0.74 -1.03,1.76 -1.59,2.91 -0.9,1.83 -1.85,3.99 -2.88,6.23 -1.95,4.24 -4.16,8.73 -6.87,12.92 -3.38,5.24 -7.52,10.01 -11.65,14.78"/>
  <line fill="none" stroke="white" stroke-width="130.22" stroke-linejoin="bevel" stroke-miterlimit="22.9256" x1="10039.95" y1="5814.49" x2="10036.93" y2= "5811.47" />
  <path fill="none" stroke="white" stroke-width="130.22" stroke-linejoin="bevel" stroke-miterlimit="22.9256" d="M10044.74 5819.28c5.33,-6.35 10.66,-12.7 14.25,-20.1 1.8,-3.68 3.16,-7.62 4.06,-11.49 0.41,-1.73 0.72,-3.44 0.93,-5.08 0.21,-1.65 0.28,-3.22 0.24,-4.47 -0.03,-0.75 -0.12,-1.4 -0.24,-1.86 -0.12,-0.46 -0.28,-0.75 -0.47,-0.83 -0.18,-0.07 -0.38,0.03 -0.61,0.27 -0.21,0.27 -0.46,0.66 -0.71,1.18 -0.43,0.83 -0.87,1.92 -1.37,3.13 -0.78,1.95 -1.65,4.19 -2.61,6.5 -1.85,4.34 -4,8.89 -6.67,13.11 -3.32,5.3 -7.47,10.07 -11.59,14.84"/>
  <line fill="none" stroke="white" stroke-width="130.22" stroke-linejoin="bevel" stroke-miterlimit="22.9256" x1="10046.8" y1="5821.34" x2="10044.74" y2= "5819.28" />
  <path fill="none" stroke="white" stroke-width="130.22" stroke-linejoin="bevel" stroke-miterlimit="22.9256" d="M10049.76 5824.31c5.3,-6.36 10.62,-12.74 14.23,-20.11 1.8,-3.66 3.19,-7.59 4.16,-11.4 0.44,-1.68 0.78,-3.37 1.05,-4.95 0.27,-1.59 0.4,-3.1 0.44,-4.27 0.03,-0.71 0,-1.27 -0.04,-1.68 -0.07,-0.4 -0.16,-0.62 -0.28,-0.63 -0.1,0 -0.25,0.16 -0.41,0.47 -0.16,0.31 -0.35,0.77 -0.56,1.33 -0.34,0.93 -0.69,2.08 -1.12,3.37 -0.69,2.05 -1.49,4.37 -2.41,6.72 -1.73,4.46 -3.84,9.05 -6.48,13.3 -3.29,5.33 -7.43,10.11 -11.55,14.88"/>
  <line fill="none" stroke="white" stroke-width="130.22" stroke-linejoin="bevel" stroke-miterlimit="22.9256" x1="10050.83" y1="5825.37" x2="10049.76" y2= "5824.31" />
  <path fill="none" stroke="white" stroke-width="130.22" stroke-linejoin="bevel" stroke-miterlimit="22.9256" d="M10051.93 5826.48c5.3,-6.38 10.6,-12.76 14.26,-20.1 1.82,-3.65 3.23,-7.53 4.28,-11.27 0.47,-1.65 0.87,-3.28 1.18,-4.81 0.31,-1.54 0.55,-2.95 0.66,-4.05 0.09,-0.65 0.13,-1.15 0.13,-1.49 0,-0.34 -0.01,-0.49 -0.06,-0.43 -0.06,0.04 -0.15,0.28 -0.24,0.65 -0.1,0.37 -0.24,0.9 -0.38,1.51 -0.25,1 -0.56,2.23 -0.92,3.57 -0.59,2.16 -1.33,4.53 -2.19,6.94 -1.64,4.56 -3.71,9.2 -6.32,13.47 -3.26,5.35 -7.4,10.13 -11.53,14.9"/>
  <line fill="none" stroke="white" stroke-width="130.22" stroke-linejoin="bevel" stroke-miterlimit="22.9256" x1="10051.93" y1="5826.48" x2="10052.02" y2= "5826.56" />
  <path fill="none" stroke="white" stroke-width="130.22" stroke-linejoin="bevel" stroke-miterlimit="22.9256" d="M9828.88 5603.44c5.73,-5.97 11.46,-11.92 15.76,-18.6 2.14,-3.32 3.94,-6.84 4.95,-10.62 0.44,-1.68 0.74,-3.41 0.8,-5.2 0.04,-1.8 -0.15,-3.66 -0.71,-5.42 -0.31,-1.05 -0.77,-2.05 -1.33,-2.97 -0.58,-0.9 -1.27,-1.73 -2.02,-2.38 -0.71,-0.59 -1.46,-1.05 -2.24,-1.36 -0.8,-0.32 -1.62,-0.5 -2.45,-0.56 -1.31,-0.06 -2.61,0.19 -3.87,0.63 -2.01,0.69 -3.91,1.88 -5.73,3.38 -1.86,1.55 -3.63,3.44 -5.39,5.33"/>
  <line fill="none" stroke="white" stroke-width="130.22" stroke-linejoin="bevel" stroke-miterlimit="22.9256" x1="9839.01" y1="5613.55" x2="9828.88" y2= "5603.44" />
  <path fill="none" stroke="white" stroke-width="130.22" stroke-linejoin="bevel" stroke-miterlimit="22.9256" d="M9857.9 5632.45c5.67,-6.01 11.37,-12.02 15.53,-18.83 2.08,-3.38 3.79,-6.98 4.73,-10.84 0.43,-1.71 0.68,-3.47 0.71,-5.29 0.03,-1.83 -0.19,-3.69 -0.74,-5.45 -0.31,-1.05 -0.77,-2.04 -1.3,-2.94 -0.56,-0.9 -1.24,-1.68 -1.96,-2.32 -0.66,-0.56 -1.4,-0.97 -2.14,-1.26 -0.77,-0.3 -1.55,-0.43 -2.33,-0.43 -1.26,0 -2.47,0.3 -3.68,0.81 -1.9,0.83 -3.71,2.14 -5.45,3.68 -3.29,2.88 -6.36,6.51 -9.6,10.16 -4.05,4.59 -8.34,9.2 -12.65,13.79"/>
  <line fill="none" stroke="white" stroke-width="130.22" stroke-linejoin="bevel" stroke-miterlimit="22.9256" x1="9867.61" y1="5642.16" x2="9857.9" y2= "5632.45" />
  <path fill="none" stroke="white" stroke-width="130.22" stroke-linejoin="bevel" stroke-miterlimit="22.9256" d="M9885.63 5660.17c5.63,-6.04 11.27,-12.11 15.31,-19.03 2.02,-3.44 3.66,-7.12 4.53,-11.03 0.38,-1.74 0.62,-3.53 0.63,-5.36 0.01,-1.85 -0.21,-3.71 -0.74,-5.45 -0.31,-1.05 -0.75,-2.04 -1.27,-2.91 -0.53,-0.87 -1.18,-1.64 -1.88,-2.23 -0.63,-0.53 -1.33,-0.9 -2.02,-1.14 -0.74,-0.25 -1.48,-0.35 -2.2,-0.31 -1.2,0.06 -2.35,0.44 -3.47,1.02 -1.8,0.93 -3.51,2.35 -5.17,3.96 -3.13,3.06 -6.08,6.81 -9.26,10.53 -3.96,4.67 -8.22,9.32 -12.49,13.94"/>
  <line fill="none" stroke="white" stroke-width="130.22" stroke-linejoin="bevel" stroke-miterlimit="22.9256" x1="9894.83" y1="5669.38" x2="9885.63" y2= "5660.17" />
  <path fill="none" stroke="white" stroke-width="130.22" stroke-linejoin="bevel" stroke-miterlimit="22.9256" d="M9911.82 5686.36c5.58,-6.08 11.18,-12.2 15.13,-19.22 1.95,-3.5 3.53,-7.24 4.34,-11.19 0.37,-1.77 0.59,-3.57 0.61,-5.4 0,-1.85 -0.22,-3.72 -0.74,-5.45 -0.3,-1.02 -0.71,-1.98 -1.21,-2.84 -0.5,-0.86 -1.11,-1.58 -1.76,-2.13 -0.61,-0.5 -1.26,-0.84 -1.92,-1.03 -0.68,-0.19 -1.36,-0.24 -2.05,-0.16 -1.12,0.15 -2.19,0.61 -3.25,1.26 -1.68,1.03 -3.29,2.54 -4.87,4.24 -2.97,3.22 -5.82,7.07 -8.9,10.87 -3.87,4.77 -8.12,9.44 -12.37,14.09"/>
  <line fill="none" stroke="white" stroke-width="130.22" stroke-linejoin="bevel" stroke-miterlimit="22.9256" x1="9920.46" y1="5695.02" x2="9911.82" y2= "5686.36" />
  <path fill="none" stroke="white" stroke-width="130.22" stroke-linejoin="bevel" stroke-miterlimit="22.9256" d="M9936.29 5710.85c5.55,-6.14 11.09,-12.29 14.94,-19.42 1.92,-3.54 3.43,-7.35 4.22,-11.34 0.35,-1.77 0.56,-3.59 0.56,-5.43 0.01,-1.85 -0.19,-3.71 -0.69,-5.4 -0.27,-1 -0.66,-1.93 -1.12,-2.76 -0.47,-0.81 -1.05,-1.49 -1.65,-2.01 -0.56,-0.44 -1.17,-0.74 -1.77,-0.89 -0.63,-0.16 -1.27,-0.15 -1.9,-0.01 -1.03,0.22 -2.04,0.74 -3.03,1.48 -1.58,1.15 -3.09,2.76 -4.58,4.53 -2.81,3.38 -5.54,7.35 -8.56,11.22 -3.79,4.83 -8.02,9.52 -12.24,14.2"/>
  <line fill="none" stroke="white" stroke-width="130.22" stroke-linejoin="bevel" stroke-miterlimit="22.9256" x1="9944.29" y1="5718.83" x2="9936.29" y2= "5710.85" />
  <line fill="none" stroke="white" stroke-width="130.22" stroke-linejoin="bevel" stroke-miterlimit="22.9256" x1="10052.02" y1="5722.16" x2="9825.25" y2= "5495.38" />
  <line fill="none" stroke="white" stroke-width="130.22" stroke-linejoin="bevel" stroke-miterlimit="22.9256" x1="9825.25" y1="5607.07" x2="9828.88" y2= "5603.44" />
  <line fill="none" stroke="white" stroke-width="130.22" stroke-linejoin="bevel" stroke-miterlimit="22.9256" x1="9839.01" y1="5613.55" x2="9825.25" y2= "5627.33" />
  <line fill="none" stroke="white" stroke-width="130.22" stroke-linejoin="bevel" stroke-miterlimit="22.9256" x1="9825.25" y1="5665.1" x2="9857.9" y2= "5632.45" />
  <line fill="none" stroke="white" stroke-width="130.22" stroke-linejoin="bevel" stroke-miterlimit="22.9256" x1="9867.61" y1="5642.16" x2="9825.25" y2= "5684.52" />
  <line fill="none" stroke="white" stroke-width="130.22" stroke-linejoin="bevel" stroke-miterlimit="22.9256" x1="9825.25" y1="5720.53" x2="9885.63" y2= "5660.17" />
  <line fill="none" stroke="white" stroke-width="130.22" stroke-linejoin="bevel" stroke-miterlimit="22.9256" x1="9894.83" y1="5669.38" x2="9825.25" y2= "5738.96" />
  <line fill="none" stroke="white" stroke-width="130.22" stroke-linejoin="bevel" stroke-miterlimit="22.9256" x1="9825.25" y1="5772.94" x2="9911.82" y2= "5686.36" />
  <line fill="none" stroke="white" stroke-width="130.22" stroke-linejoin="bevel" stroke-miterlimit="22.9256" x1="9920.46" y1="5695.02" x2="9825.25" y2= "5790.23" />
  <line fill="none" stroke="white" stroke-width="130.22" stroke-linejoin="bevel" stroke-miterlimit="22.9256" x1="9825.25" y1="5821.88" x2="9936.29" y2= "5710.85" />
  <line fill="none" stroke="white" stroke-width="130.22" stroke-linejoin="bevel" stroke-miterlimit="22.9256" x1="9944.29" y1="5718.83" x2="9825.25" y2= "5837.87" />
  <line fill="none" stroke="white" stroke-width="130.22" stroke-linejoin="bevel" stroke-miterlimit="22.9256" x1="9825.25" y1="5866.96" x2="9958.84" y2= "5733.38" />
  <line fill="none" stroke="white" stroke-width="130.22" stroke-linejoin="bevel" stroke-miterlimit="22.9256" x1="9966.13" y1="5740.67" x2="9825.25" y2= "5881.55" />
  <line fill="none" stroke="white" stroke-width="130.22" stroke-linejoin="bevel" stroke-miterlimit="22.9256" x1="9825.25" y1="5907.85" x2="9979.29" y2= "5753.83" />
  <line fill="none" stroke="white" stroke-width="130.22" stroke-linejoin="bevel" stroke-miterlimit="22.9256" x1="9985.8" y1="5760.34" x2="9825.25" y2= "5920.89" />
  <line fill="none" stroke="white" stroke-width="130.22" stroke-linejoin="bevel" stroke-miterlimit="22.9256" x1="9825.25" y1="5944.16" x2="9997.43" y2= "5771.98" />
  <line fill="none" stroke="white" stroke-width="130.22" stroke-linejoin="bevel" stroke-miterlimit="22.9256" x1="10003.15" y1="5777.69" x2="9825.25" y2= "5955.59" />
  <line fill="none" stroke="white" stroke-width="130.22" stroke-linejoin="bevel" stroke-miterlimit="22.9256" x1="9825.25" y1="5975.67" x2="10013.19" y2= "5787.73" />
  <line fill="none" stroke="white" stroke-width="130.22" stroke-linejoin="bevel" stroke-miterlimit="22.9256" x1="10018.03" y1="5792.57" x2="9825.25" y2= "5985.34" />
  <line fill="none" stroke="white" stroke-width="130.22" stroke-linejoin="bevel" stroke-miterlimit="22.9256" x1="9825.25" y1="6002.07" x2="10026.39" y2= "5800.93" />
  <line fill="none" stroke="white" stroke-width="130.22" stroke-linejoin="bevel" stroke-miterlimit="22.9256" x1="10030.33" y1="5804.87" x2="9825.25" y2= "6009.94" />
  <line fill="none" stroke="white" stroke-width="130.22" stroke-linejoin="bevel" stroke-miterlimit="22.9256" x1="9825.25" y1="6023.16" x2="10036.93" y2= "5811.47" />
  <line fill="none" stroke="white" stroke-width="130.22" stroke-linejoin="bevel" stroke-miterlimit="22.9256" x1="10039.95" y1="5814.49" x2="9825.25" y2= "6029.18" />
  <line fill="none" stroke="white" stroke-width="130.22" stroke-linejoin="bevel" stroke-miterlimit="22.9256" x1="9825.25" y1="6038.78" x2="10044.74" y2= "5819.28" />
  <line fill="none" stroke="white" stroke-width="130.22" stroke-linejoin="bevel" stroke-miterlimit="22.9256" x1="10046.8" y1="5821.34" x2="9825.25" y2= "6042.87" />
  <line fill="none" stroke="white" stroke-width="130.22" stroke-linejoin="bevel" stroke-miterlimit="22.9256" x1="9825.25" y1="6048.8" x2="10049.76" y2= "5824.31" />
  <line fill="none" stroke="white" stroke-width="130.22" stroke-linejoin="bevel" stroke-miterlimit="22.9256" x1="10050.83" y1="5825.37" x2="9825.25" y2= "6050.96" />
  <line fill="none" stroke="white" stroke-width="130.22" stroke-linejoin="bevel" stroke-miterlimit="22.9256" x1="9825.25" y1="6053.14" x2="10051.93" y2= "5826.48" />
  <line fill="none" stroke="white" stroke-width="130.22" stroke-linejoin="bevel" stroke-miterlimit="22.9256" x1="7003.27" y1="6412.64" x2="7356.97" y2= "6412.64" />
 </g>
</svg>
