<svg width="1920" height="1080" viewBox="0 0 1920 1080" fill="none" xmlns="http://www.w3.org/2000/svg">
<path d="M-587.9 471.9L-372 687.4L-156.2 903.1L59.4 1119L275.2 1334.7L706.8 1766L1138 2197.8L1137.9 2197.9L706.1 1766.7L274.8 1335.1L59.1 1119.3L-156.8 903.7L-372.5 687.9L-588 471.9H-587.9Z" fill="#212121"/>
<path d="M-579.1 463.1L-363.2 678.6L-147.4 894.3L68.1998 1110.2L284 1325.9L715.6 1757.2L1146.8 2189H1146.7L714.9 1757.9L283.6 1326.2L67.8998 1110.5L-147.9 894.8L-363.7 679.1L-579.2 463.1H-579.1Z" fill="#212121"/>
<path d="M-570.3 454.3L-354.4 669.8L-138.6 885.5L76.9996 1101.4L292.8 1317.1L724.4 1748.4L1155.6 2180.2H1155.5L723.7 1749.1L292.4 1317.4L76.6996 1101.6L-139.1 886L-354.8 670.3L-570.4 454.3H-570.3Z" fill="#212121"/>
<path d="M-561.5 445.4L-345.6 661L-129.8 876.7L85.8004 1092.6L301.6 1308.2L733.2 1739.6L1164.4 2171.4H1164.3L732.6 1740.3L301.2 1308.6L85.5004 1092.8L-130.3 877.2L-346 661.5L-561.6 445.5L-561.5 445.4Z" fill="#212121"/>
<path d="M-552.7 436.6L-336.7 652.2L-121 867.9L94.6002 1083.8L310.4 1299.4L742.1 1730.8L1173.2 2162.5V2162.6L741.4 1731.4L310 1299.8L94.4002 1084L-121.5 868.4L-337.2 652.7L-552.8 436.7L-552.7 436.6Z" fill="#212121"/>
<path d="M-543.9 427.8L-327.9 643.4L-112.2 859.1L103.4 1074.9L319.2 1290.6L750.9 1721.9L1182 2153.7V2153.8L750.2 1722.6L318.8 1291L103.2 1075.2L-112.7 859.6L-328.4 643.8L-544 427.9L-543.9 427.8Z" fill="#212121"/>
<path d="M-535.1 419L-319.1 634.5L-103.4 850.3L112.2 1066.1L328 1281.8L759.7 1713.1L1190.8 2144.9V2145L759 1713.8L327.7 1282.2L112 1066.4L-103.9 850.8L-319.6 635L-535.1 419.1V419Z" fill="#212121"/>
<path d="M-526.3 410.2L-310.3 625.7L-94.4998 841.5L121.1 1057.3L336.9 1273L768.5 1704.3L1199.7 2136.1L1199.6 2136.2L767.8 1705L336.5 1273.4L120.8 1057.6L-95.0998 842L-310.8 626.2L-526.3 410.3V410.2Z" fill="#212121"/>
<path d="M-517.4 401.4L-301.5 616.9L-85.7 832.6L129.9 1048.5L345.7 1264.2L777.3 1695.5L1208.5 2127.3L1208.4 2127.4L776.6 1696.2L345.3 1264.6L129.6 1048.8L-86.3 833.2L-302 617.4L-517.5 401.5L-517.4 401.4Z" fill="#212121"/>
<path d="M-508.6 392.6L-292.7 608.1L-76.9002 823.8L138.7 1039.7L354.5 1255.4L786.1 1686.7L1217.3 2118.5L1217.2 2118.6L785.4 1687.4L354.1 1255.8L138.4 1040L-77.5002 824.4L-293.2 608.6L-508.7 392.7L-508.6 392.6Z" fill="#212121"/>
<path d="M-499.8 383.8L-283.9 599.3L-68.1004 815L147.5 1030.9L363.3 1246.6L794.9 1677.9L1226.1 2109.7L1226 2109.8L794.2 1678.6L362.9 1247L147.2 1031.2L-68.7004 815.6L-284.4 599.8L-499.9 383.8H-499.8Z" fill="#212121"/>
<path d="M-491 375L-275.1 590.5L-59.2996 806.2L156.3 1022.1L372.1 1237.8L803.7 1669.1L1234.9 2100.9H1234.8L803 1669.8L371.7 1238.2L156 1022.4L-59.7996 806.7L-275.6 591L-491.1 375H-491Z" fill="#212121"/>
<path d="M-482.2 366.2L-266.3 581.7L-50.4998 797.4L165.1 1013.3L380.9 1229L812.5 1660.3L1243.7 2092.1H1243.6L811.8 1661L380.5 1229.3L164.8 1013.5L-50.9998 797.9L-266.7 582.2L-482.3 366.2H-482.2Z" fill="#212121"/>
<path d="M-473.4 357.3L-257.5 572.9L-41.7 788.6L173.9 1004.5L389.7 1220.1L821.3 1651.5L1252.5 2083.3H1252.4L820.7 1652.2L389.3 1220.5L173.6 1004.7L-42.2 789.1L-257.9 573.4L-473.5 357.4L-473.4 357.3Z" fill="#212121"/>
<path d="M-464.6 348.5L-248.6 564.1L-32.9002 779.8L182.7 995.7L398.5 1211.3L830.2 1642.7L1261.3 2074.4L1261.2 2074.5L829.5 1643.3L398.1 1211.7L182.5 995.9L-33.4002 780.3L-249.1 564.6L-464.7 348.6L-464.6 348.5Z" fill="#212121"/>
<path d="M-455.8 339.7L-239.8 555.3L-24.1004 771L191.5 986.8L407.3 1202.5L839 1633.8L1270.1 2065.6V2065.7L838.3 1634.5L406.9 1202.9L191.3 987.1L-24.6004 771.5L-240.3 555.7L-455.9 339.8L-455.8 339.7Z" fill="#212121"/>
<path d="M-447 330.9L-231 546.4L-15.3 762.2L200.3 978L416.1 1193.7L847.8 1625L1278.9 2056.8V2056.9L847.1 1625.7L415.8 1194.1L200.1 978.3L-15.8 762.7L-231.5 546.9L-447 331V330.9Z" fill="#212121"/>
<path d="M-438.2 322.1L-222.2 537.6L-6.50018 753.4L209.2 969.2L425 1184.9L856.6 1616.2L1287.8 2048L1287.7 2048.1L855.9 1616.9L424.6 1185.3L208.9 969.5L-7.00018 753.9L-222.7 538.1L-438.2 322.2V322.1Z" fill="#212121"/>
<path d="M-429.4 313.3L-213.4 528.8L2.39963 744.5L218 960.4L433.8 1176.1L865.4 1607.4L1296.6 2039.2L1296.5 2039.3L864.7 1608.1L433.4 1176.5L217.7 960.7L1.79959 745.1L-213.9 529.3L-429.4 313.4V313.3Z" fill="#212121"/>
<path d="M-420.5 304.5L-204.6 520L11.2004 735.7L226.8 951.6L442.6 1167.3L874.2 1598.6L1305.4 2030.4L1305.3 2030.5L873.5 1599.3L442.2 1167.7L226.5 951.9L10.6004 736.3L-205.1 520.5L-420.6 304.6L-420.5 304.5Z" fill="#212121"/>
<path d="M-411.7 295.7L-195.8 511.2L20.0002 726.9L235.6 942.8L451.4 1158.5L883 1589.8L1314.2 2021.6L1314.1 2021.7L882.3 1590.5L451 1158.9L235.3 943.1L19.4002 727.5L-196.3 511.7L-411.8 295.7H-411.7Z" fill="#212121"/>
<path d="M-402.9 286.9L-187 502.4L28.8 718.1L244.4 934L460.2 1149.7L891.8 1581L1323 2012.8H1322.9L891.1 1581.7L459.8 1150.1L244.1 934.3L28.3 718.6L-187.5 502.9L-403 286.9H-402.9Z" fill="#212121"/>
<path d="M-394.1 278.1L-178.2 493.6L37.5998 709.3L253.2 925.2L469 1140.9L900.6 1572.2L1331.8 2004H1331.7L899.9 1572.9L468.6 1141.2L252.9 925.4L37.0998 709.8L-178.7 494.1L-394.2 278.1H-394.1Z" fill="#212121"/>
<path d="M-385.3 269.2L-169.4 484.8L46.3996 700.5L262 916.4L477.8 1132L909.4 1563.4L1340.6 1995.2H1340.5L908.8 1564.1L477.4 1132.4L261.7 916.6L45.8996 701L-169.8 485.3L-385.4 269.3L-385.3 269.2Z" fill="#212121"/>
<path d="M-376.5 260.4L-160.5 476L55.2004 691.7L270.8 907.6L486.6 1123.2L918.3 1554.6L1349.4 1986.3L1349.3 1986.4L917.6 1555.2L486.2 1123.6L270.6 907.8L54.7004 692.2L-161 476.5L-376.6 260.5L-376.5 260.4Z" fill="#212121"/>
<path d="M-367.7 251.6L-151.7 467.2L64.0002 682.9L279.6 898.7L495.4 1114.4L927.1 1545.8L1358.2 1977.5V1977.6L926.4 1546.4L495 1114.8L279.4 899L63.5002 683.4L-152.2 467.6L-367.8 251.7L-367.7 251.6Z" fill="#212121"/>
<path d="M-358.9 242.8L-142.9 458.3L72.7996 674.1L288.4 889.9L504.2 1105.6L935.9 1536.9L1367 1968.7V1968.8L935.2 1537.6L503.9 1106L288.2 890.2L72.2996 674.6L-143.4 458.8L-358.9 242.9V242.8Z" fill="#212121"/>
<path d="M-350.1 234L-134.1 449.5L81.6004 665.3L297.3 881.1L513.1 1096.8L944.7 1528.1L1375.8 1959.9V1960L944 1528.8L512.7 1097.2L297 881.4L81.1004 665.8L-134.6 450L-350.1 234.1V234Z" fill="#212121"/>
<path d="M-341.3 225.2L-125.3 440.7L90.5002 656.4L306.1 872.3L521.9 1088L953.5 1519.3L1384.7 1951.1L1384.6 1951.2L952.8 1520L521.5 1088.4L305.8 872.6L89.9002 657L-125.8 441.2L-341.3 225.3V225.2Z" fill="#212121"/>
<path d="M-332.4 216.4L-116.5 431.9L99.3 647.6L314.9 863.5L530.7 1079.2L962.3 1510.5L1393.5 1942.3L1393.4 1942.4L961.6 1511.2L530.3 1079.6L314.6 863.8L98.7 648.2L-117 432.4L-332.5 216.5L-332.4 216.4Z" fill="#212121"/>
<path d="M-323.6 207.6L-107.7 423.1L108.1 638.8L323.7 854.7L539.5 1070.4L971.1 1501.7L1402.3 1933.5L1402.2 1933.6L970.4 1502.4L539.1 1070.8L323.4 855L107.5 639.4L-108.2 423.6L-323.7 207.6H-323.6Z" fill="#212121"/>
<path d="M-314.8 198.8L-98.9004 414.3L116.9 630L332.5 845.9L548.3 1061.6L979.9 1492.9L1411.1 1924.7H1411L979.2 1493.6L547.9 1062L332.2 846.2L116.4 630.5L-99.4004 414.8L-314.9 198.8H-314.8Z" fill="#212121"/>
<path d="M-306 190L-90.0996 405.5L125.7 621.2L341.3 837.1L557.1 1052.8L988.7 1484.1L1419.9 1915.9H1419.8L988 1484.8L556.7 1053.1L341 837.3L125.2 621.7L-90.5996 406L-306.1 190H-306Z" fill="#212121"/>
<path d="M-297.2 181.1L-81.2998 396.7L134.5 612.4L350.1 828.3L565.9 1043.9L997.5 1475.3L1428.7 1907.1H1428.6L996.9 1476L565.5 1044.3L349.8 828.5L134 612.9L-81.6998 397.2L-297.3 181.2L-297.2 181.1Z" fill="#212121"/>
<path d="M-288.4 172.3L-72.4 387.9L143.3 603.6L358.9 819.5L574.7 1035.1L1006.4 1466.5L1437.5 1898.2L1437.4 1898.3L1005.7 1467.2L574.3 1035.5L358.7 819.7L142.8 604.1L-72.9 388.4L-288.5 172.4L-288.4 172.3Z" fill="#212121"/>
<path d="M-279.6 163.5L-63.6002 379.1L152.1 594.8L367.7 810.6L583.5 1026.3L1015.2 1457.7L1446.3 1889.4V1889.5L1014.5 1458.3L583.1 1026.7L367.5 810.9L151.6 595.3L-64.1002 379.5L-279.7 163.6L-279.6 163.5Z" fill="#212121"/>
<path d="M-270.8 154.7L-54.7998 370.2L160.9 586L376.5 801.8L592.3 1017.5L1024 1448.8L1455.1 1880.6V1880.7L1023.3 1449.5L592 1017.9L376.3 802.1L160.4 586.5L-55.2998 370.7L-270.8 154.8V154.7Z" fill="#212121"/>
<path d="M-262 145.9L-46 361.4L169.7 577.2L385.4 793L601.2 1008.7L1032.8 1440L1463.9 1871.8V1871.9L1032.1 1440.7L600.8 1009.1L385.1 793.3L169.2 577.7L-46.5 361.9L-262 146V145.9Z" fill="#212121"/>
<path d="M-253.2 137.1L-37.2002 352.6L178.6 568.3L394.2 784.2L610 999.9L1041.6 1431.2L1472.8 1863L1472.7 1863.1L1040.9 1431.9L609.6 1000.3L393.9 784.5L178 568.9L-37.7002 353.1L-253.2 137.2V137.1Z" fill="#212121"/>
<path d="M-244.3 128.3L-28.4004 343.8L187.4 559.5L403 775.4L618.8 991.1L1050.4 1422.4L1481.6 1854.2L1481.5 1854.3L1049.7 1423.1L618.4 991.5L402.7 775.7L186.8 560.1L-28.9004 344.3L-244.4 128.4L-244.3 128.3Z" fill="#212121"/>
<path d="M-235.5 119.5L-19.5996 335L196.2 550.7L411.8 766.6L627.6 982.3L1059.2 1413.6L1490.4 1845.4L1490.3 1845.5L1058.5 1414.3L627.2 982.7L411.5 766.9L195.6 551.3L-20.0996 335.5L-235.6 119.5H-235.5Z" fill="#212121"/>
<path d="M-226.7 110.7L-10.7998 326.2L205 541.9L420.6 757.8L636.4 973.5L1068 1404.8L1499.2 1836.6H1499.1L1067.3 1405.5L636 973.9L420.3 758.1L204.5 542.4L-11.2998 326.7L-226.8 110.7H-226.7Z" fill="#212121"/>
<path d="M-217.9 101.9L-2 317.4L213.8 533.1L429.4 749L645.2 964.7L1076.8 1396L1508 1827.8H1507.9L1076.1 1396.7L644.8 965L429.1 749.2L213.3 533.6L-2.5 317.9L-218 101.9H-217.9Z" fill="#212121"/>
<path d="M-209.1 93L6.7998 308.6L222.6 524.3L438.2 740.2L654 955.8L1085.6 1387.2L1516.8 1819H1516.7L1084.9 1387.9L653.6 956.2L437.9 740.4L222.1 524.8L6.39984 309.1L-209.2 93.1L-209.1 93Z" fill="#212121"/>
<path d="M-200.3 84.2L15.6996 299.8L231.4 515.5L447 731.4L662.8 947L1094.4 1378.4L1525.6 1810.1L1525.5 1810.2L1093.8 1379.1L662.4 947.4L446.8 731.6L230.9 516L15.1996 300.3L-200.4 84.3L-200.3 84.2Z" fill="#212121"/>
<path d="M-191.5 75.4L24.5004 291L240.2 506.7L455.8 722.5L671.6 938.2L1103.3 1369.6L1534.4 1801.3V1801.4L1102.6 1370.2L671.2 938.6L455.6 722.8L239.7 507.2L24.0004 291.4L-191.6 75.5L-191.5 75.4Z" fill="#212121"/>
<path d="M-182.7 66.6L33.2998 282.2L249 497.9L464.6 713.7L680.4 929.4L1112.1 1360.7L1543.2 1792.5V1792.6L1111.4 1361.4L680.1 929.8L464.4 714L248.5 498.4L32.7998 282.6L-182.7 66.7V66.6Z" fill="#212121"/>
<path d="M-173.9 57.8L42.0996 273.3L257.8 489.1L473.5 704.9L689.3 920.6L1120.9 1351.9L1552 1783.7V1783.8L1120.2 1352.6L688.9 921L473.2 705.2L257.3 489.6L41.5996 273.8L-173.9 57.9V57.8Z" fill="#212121"/>
<path d="M-165.1 49L50.9004 264.5L266.7 480.2L482.3 696.1L698.1 911.8L1129.7 1343.1L1560.9 1774.9L1560.8 1775L1129 1343.8L697.7 912.2L482 696.4L266.1 480.8L50.4004 265L-165.1 49.1V49Z" fill="#212121"/>
<path d="M-156.2 40.2L59.7002 255.7L275.5 471.4L491.1 687.3L706.9 903L1138.5 1334.3L1569.7 1766.1L1569.6 1766.2L1137.8 1335L706.5 903.4L490.8 687.6L274.9 472L59.2002 256.2L-156.3 40.3L-156.2 40.2Z" fill="#212121"/>
<path d="M-147.4 31.4L68.5 246.9L284.3 462.6L499.9 678.5L715.7 894.2L1147.3 1325.5L1578.5 1757.3L1578.4 1757.4L1146.6 1326.2L715.3 894.6L499.6 678.8L283.7 463.2L68 247.4L-147.5 31.5L-147.4 31.4Z" fill="#212121"/>
<path d="M-138.6 22.6L77.2998 238.1L293.1 453.8L508.7 669.7L724.5 885.4L1156.1 1316.7L1587.3 1748.5L1587.2 1748.6L1155.4 1317.4L724.1 885.8L508.4 670L292.6 454.4L76.7998 238.6L-138.7 22.6H-138.6Z" fill="#212121"/>
<path d="M-129.8 13.8L86.0996 229.3L301.9 445L517.5 660.9L733.3 876.6L1164.9 1307.9L1596.1 1739.7H1596L1164.2 1308.6L732.9 876.9L517.2 661.1L301.4 445.5L85.5996 229.8L-129.9 13.8H-129.8Z" fill="#212121"/>
<path d="M-121 4.90002L94.9004 220.5L310.7 436.2L526.3 652.1L742.1 867.7L1173.7 1299.1L1604.9 1730.9H1604.8L1173 1299.8L741.7 868.1L526 652.3L310.2 436.7L94.5004 221L-121.1 5L-121 4.90002Z" fill="#212121"/>
<path d="M-112.2 -3.90002L103.8 211.7L319.5 427.4L535.1 643.3L750.9 858.9L1182.5 1290.3L1613.7 1722.1H1613.6L1181.9 1291L750.5 859.3L534.9 643.5L319 427.9L103.3 212.2L-112.3 -3.79999L-112.2 -3.90002Z" fill="#212121"/>
<path d="M-103.4 -12.7L112.6 202.9L328.3 418.6L543.9 634.4L759.7 850.1L1191.4 1281.5L1622.5 1713.2V1713.3L1190.7 1282.1L759.3 850.5L543.7 634.7L327.8 419.1L112.1 203.3L-103.5 -12.5999L-103.4 -12.7Z" fill="#212121"/>
<path d="M-94.5996 -21.5L121.4 194.1L337.1 409.8L552.7 625.6L768.5 841.3L1200.2 1272.6L1631.3 1704.4V1704.5L1199.5 1273.3L768.2 841.7L552.5 625.9L336.6 410.3L120.9 194.5L-94.5996 -21.4V-21.5Z" fill="#212121"/>
<path d="M-85.7998 -30.3L130.2 185.2L345.9 401L561.6 616.8L777.3 832.5L1209 1263.8L1640.1 1695.6V1695.7L1208.3 1264.5L777 832.9L561.3 617.1L345.4 401.5L129.7 185.7L-85.7998 -30.2001V-30.3Z" fill="#212121"/>
<path d="M-77 -39.1L139 176.4L354.8 392.1L570.4 608L786.2 823.7L1217.8 1255L1649 1686.8L1648.9 1686.9L1217.1 1255.7L785.8 824.1L570.1 608.3L354.2 392.7L138.5 176.9L-77 -39V-39.1Z" fill="#212121"/>
<path d="M-68.1002 -47.9L147.8 167.6L363.6 383.3L579.2 599.2L795 814.9L1226.6 1246.2L1657.8 1678L1657.7 1678.1L1225.9 1246.9L794.6 815.3L578.9 599.5L363 383.9L147.3 168.1L-68.2002 -47.8L-68.1002 -47.9Z" fill="#212121"/>
<path d="M-59.3004 -56.7L156.6 158.8L372.4 374.5L588 590.4L803.8 806.1L1235.4 1237.4L1666.6 1669.2L1666.5 1669.3L1234.7 1238.1L803.4 806.5L587.7 590.7L371.8 375.1L156.1 159.3L-59.4004 -56.5999L-59.3004 -56.7Z" fill="#212121"/>
<path d="M-50.4996 -65.5L165.4 150L381.2 365.7L596.8 581.6L812.6 797.3L1244.2 1228.6L1675.4 1660.4L1675.3 1660.5L1243.5 1229.3L812.2 797.7L596.5 581.9L380.6 366.3L164.9 150.5L-50.5996 -65.5H-50.4996Z" fill="#212121"/>
<path d="M-41.6998 -74.3L174.2 141.2L390 356.9L605.6 572.8L821.4 788.5L1253 1219.8L1684.2 1651.6H1684.1L1252.3 1220.5L821 788.8L605.3 573L389.5 357.4L173.7 141.7L-41.7998 -74.3H-41.6998Z" fill="#212121"/>
<path d="M-32.9 -83.1L183 132.4L398.8 348.1L614.4 564L830.2 779.6L1261.8 1211L1693 1642.8H1692.9L1261.1 1211.7L829.8 780L614.1 564.2L398.3 348.6L182.6 132.9L-33 -83.1H-32.9Z" fill="#212121"/>
<path d="M-24.1002 -92L191.9 123.6L407.6 339.3L623.2 555.2L839 770.8L1270.6 1202.2L1701.8 1634H1701.7L1270 1202.9L838.6 771.2L623 555.4L407.1 339.8L191.4 124.1L-24.2002 -91.9L-24.1002 -92Z" fill="#212121"/>
<path d="M-15.3004 -100.8L200.7 114.8L416.4 330.5L632 546.3L847.8 762L1279.5 1193.4L1710.6 1625.1V1625.2L1278.8 1194L847.4 762.4L631.8 546.6L415.9 331L200.2 115.2L-15.4004 -100.7L-15.3004 -100.8Z" fill="#212121"/>
<path d="M-6.5 -109.6L209.5 106L425.2 321.7L640.8 537.5L856.6 753.2L1288.3 1184.5L1719.4 1616.3V1616.4L1287.6 1185.2L856.3 753.6L640.6 537.8L424.7 322.2L209 106.4L-6.5 -109.5V-109.6Z" fill="#212121"/>
<path d="M2.2998 -118.4L218.3 97.1L434 312.9L649.6 528.7L865.4 744.4L1297.1 1175.7L1728.2 1607.5V1607.6L1296.4 1176.4L865.1 744.8L649.4 529L433.5 313.4L217.8 97.6L2.2998 -118.3V-118.4Z" fill="#212121"/>
<path d="M11.0996 -127.2L227.1 88.3001L442.9 304L658.5 519.9L874.3 735.6L1305.9 1166.9L1737.1 1598.7L1737 1598.8L1305.2 1167.6L873.9 736L658.2 520.2L442.3 304.6L226.6 88.8001L11.0996 -127.1V-127.2Z" fill="#212121"/>
<path d="M20.0004 -136L235.9 79.5L451.7 295.2L667.3 511.1L883.1 726.8L1314.7 1158.1L1745.9 1589.9L1745.8 1590L1314 1158.8L882.7 727.2L667 511.4L451.1 295.8L235.4 80L19.9004 -135.9L20.0004 -136Z" fill="#212121"/>
<path d="M28.8002 -144.8L244.7 70.6999L460.5 286.4L676.1 502.3L891.9 718L1323.5 1149.3L1754.7 1581.1L1754.6 1581.2L1322.8 1150L891.5 718.4L675.8 502.6L459.9 287L244.2 71.1999L28.7002 -144.7L28.8002 -144.8Z" fill="#212121"/>
<path d="M37.6 -153.6L253.5 61.9L469.3 277.6L684.9 493.5L900.7 709.2L1332.3 1140.5L1763.5 1572.3L1763.4 1572.4L1331.6 1141.2L900.3 709.6L684.6 493.8L468.7 278.2L253 62.4L37.5 -153.6H37.6Z" fill="#212121"/>
<path d="M46.3998 -162.4L262.3 53.1L478.1 268.8L693.7 484.7L909.5 700.4L1341.1 1131.7L1772.3 1563.5H1772.2L1340.4 1132.4L909.1 700.7L693.4 484.9L477.6 269.3L261.8 53.6L46.2998 -162.4H46.3998Z" fill="#212121"/>
<path d="M55.1996 -171.2L271.1 44.3001L486.9 260L702.5 475.9L918.3 691.5L1349.9 1122.9L1781.1 1554.7H1781L1349.2 1123.6L917.9 691.9L702.2 476.1L486.4 260.5L270.7 44.8001L55.0996 -171.2H55.1996Z" fill="#212121"/>
<path d="M64.0004 -180.1L280 35.5L495.7 251.2L711.3 467.1L927.1 682.7L1358.7 1114.1L1789.9 1545.9H1789.8L1358.1 1114.8L926.7 683.1L711.1 467.3L495.2 251.7L279.5 36L63.9004 -180L64.0004 -180.1Z" fill="#212121"/>
<path d="M72.8002 -188.9L288.8 26.7L504.5 242.4L720.1 458.2L935.9 673.9L1367.6 1105.3L1798.7 1537V1537.1L1366.9 1105.9L935.5 674.3L719.9 458.5L504 242.9L288.3 27.1L72.7002 -188.8L72.8002 -188.9Z" fill="#212121"/>
<path d="M81.5996 -197.7L297.6 17.9001L513.3 233.6L728.9 449.4L944.7 665.1L1376.4 1096.4L1807.5 1528.2V1528.3L1375.7 1097.1L944.4 665.5L728.7 449.7L512.8 234.1L297.1 18.3001L81.5996 -197.6V-197.7Z" fill="#212121"/>
<path d="M90.4004 -206.5L306.4 9L522.1 224.8L737.7 440.6L953.5 656.3L1385.2 1087.6L1816.3 1519.4V1519.5L1384.5 1088.3L953.2 656.7L737.5 440.9L521.6 225.3L305.9 9.5L90.4004 -206.4V-206.5Z" fill="#212121"/>
<path d="M99.2002 -215.3L315.2 0.199951L531 215.9L746.6 431.8L962.4 647.5L1394 1078.8L1825.2 1510.6L1825.1 1510.7L1393.3 1079.5L962 647.9L746.3 432.1L530.4 216.5L314.7 0.699951L99.2002 -215.2V-215.3Z" fill="#212121"/>
<path d="M108.1 -224.1L324 -8.59998L539.8 207.1L755.4 423L971.2 638.7L1402.8 1070L1834 1501.8L1833.9 1501.9L1402.1 1070.7L970.8 639.1L755.1 423.3L539.2 207.7L323.5 -8.09998L108 -224L108.1 -224.1Z" fill="#212121"/>
<path d="M116.9 -232.9L332.8 -17.4L548.6 198.3L764.2 414.2L980 629.9L1411.6 1061.2L1842.8 1493L1842.7 1493.1L1410.9 1061.9L979.6 630.3L763.9 414.5L548 198.9L332.3 -16.9L116.8 -232.8L116.9 -232.9Z" fill="#212121"/>
<path d="M125.7 -241.7L341.6 -26.2L557.4 189.5L773 405.4L988.8 621.1L1420.4 1052.4L1851.6 1484.2L1851.5 1484.3L1419.7 1053.1L988.4 621.5L772.7 405.7L556.8 190.1L341.1 -25.7L125.6 -241.7H125.7Z" fill="#212121"/>
<path d="M134.5 -250.5L350.4 -35L566.2 180.7L781.8 396.6L997.6 612.3L1429.2 1043.6L1860.4 1475.4H1860.3L1428.5 1044.3L997.2 612.6L781.5 396.8L565.7 181.2L349.9 -34.5L134.4 -250.5H134.5Z" fill="#212121"/>
<path d="M143.3 -259.3L359.2 -43.8L575 171.9L790.6 387.8L1006.4 603.4L1438 1034.8L1869.2 1466.6H1869.1L1437.3 1035.5L1006 603.8L790.3 388L574.5 172.4L358.8 -43.3L143.2 -259.3H143.3Z" fill="#212121"/>
<path d="M152.1 -268.2L368 -52.5999L583.8 163.1L799.4 379L1015.2 594.6L1446.8 1026L1878 1457.8H1877.9L1446.2 1026.7L1014.8 595L799.2 379.2L583.3 163.6L367.6 -52.0999L152 -268.1L152.1 -268.2Z" fill="#212121"/>
<path d="M160.9 -277L376.9 -61.4L592.6 154.3L808.2 370.2L1024 585.8L1455.7 1017.2L1886.8 1448.9V1449L1455 1017.8L1023.6 586.2L808 370.4L592.1 154.8L376.4 -61L160.8 -276.9L160.9 -277Z" fill="#212121"/>
<path d="M169.7 -285.8L385.7 -70.2001L601.4 145.5L817 361.3L1032.8 577L1464.5 1008.3L1895.6 1440.1V1440.2L1463.8 1009L1032.4 577.4L816.8 361.6L600.9 146L385.2 -69.8L169.7 -285.7V-285.8Z" fill="#212121"/>
<path d="M178.5 -294.6L394.5 -79.1L610.2 136.7L825.8 352.5L1041.6 568.2L1473.3 999.5L1904.4 1431.3V1431.4L1472.6 1000.2L1041.3 568.6L825.6 352.8L609.7 137.2L394 -78.6L178.5 -294.5V-294.6Z" fill="#212121"/>
<path d="M187.3 -303.4L403.3 -87.9L619.1 127.8L834.7 343.7L1050.5 559.4L1482.1 990.7L1913.3 1422.5L1913.2 1422.6L1481.4 991.4L1050.1 559.8L834.4 344L618.5 128.4L402.8 -87.4L187.3 -303.3V-303.4Z" fill="#212121"/>
<path d="M196.2 -312.2L412.1 -96.7L627.9 119L843.5 334.9L1059.3 550.6L1490.9 981.9L1922.1 1413.7L1922 1413.8L1490.2 982.6L1058.9 551L843.2 335.2L627.3 119.6L411.6 -96.2L196.1 -312.1L196.2 -312.2Z" fill="#212121"/>
<path d="M205 -321L420.9 -105.5L636.7 110.2L852.3 326.1L1068.1 541.8L1499.7 973.1L1930.9 1404.9L1930.8 1405L1499 973.8L1067.7 542.2L852 326.4L636.1 110.8L420.4 -105L204.9 -320.9L205 -321Z" fill="#212121"/>
<path d="M213.8 -329.8L429.7 -114.3L645.5 101.4L861.1 317.3L1076.9 533L1508.5 964.3L1939.7 1396.1L1939.6 1396.2L1507.8 965L1076.5 533.4L860.8 317.6L644.9 102L429.2 -113.8L213.7 -329.8H213.8Z" fill="#212121"/>
<path d="M222.6 -338.6L438.5 -123.1L654.3 92.6L869.9 308.5L1085.7 524.2L1517.3 955.5L1948.5 1387.3H1948.4L1516.6 956.2L1085.3 524.5L869.6 308.7L653.8 93.1L438 -122.6L222.5 -338.6H222.6Z" fill="#212121"/>
<path d="M231.4 -347.4L447.3 -131.9L663.1 83.8L878.7 299.7L1094.5 515.4L1526.1 946.7L1957.3 1378.5H1957.2L1525.4 947.4L1094.1 515.7L878.4 299.9L662.6 84.3L446.9 -131.4L231.3 -347.4H231.4Z" fill="#212121"/>
<path d="M240.2 -356.3L456.1 -140.7L671.9 74.9999L887.5 290.9L1103.3 506.5L1534.9 937.9L1966.1 1369.7H1966L1534.3 938.6L1102.9 506.9L887.2 291.1L671.4 75.4999L455.7 -140.2L240.1 -356.2L240.2 -356.3Z" fill="#212121"/>
<path d="M249 -365.1L465 -149.5L680.7 66.2L896.3 282.1L1112.1 497.7L1543.8 929.1L1974.9 1360.8V1360.9L1543.1 929.7L1111.7 498.1L896.1 282.3L680.2 66.7L464.5 -149L248.9 -365L249 -365.1Z" fill="#212121"/>
<path d="M257.8 -373.9L473.8 -158.3L689.5 57.4L905.1 273.2L1120.9 488.9L1552.6 920.2L1983.7 1352V1352.1L1551.9 920.9L1120.5 489.3L904.9 273.5L689 57.9L473.3 -157.9L257.8 -373.8V-373.9Z" fill="#212121"/>
<path d="M266.6 -382.7L482.6 -167.2L698.3 48.6L913.9 264.4L1129.7 480.1L1561.4 911.4L1992.5 1343.2V1343.3L1560.7 912.1L1129.4 480.5L913.7 264.7L697.8 49.1L482.1 -166.7L266.6 -382.6V-382.7Z" fill="#212121"/>
<path d="M275.4 -391.5L491.4 -176L707.2 39.7L922.8 255.6L1138.6 471.3L1570.2 902.6L2001.4 1334.4L2001.3 1334.5L1569.5 903.3L1138.2 471.7L922.5 255.9L706.6 40.3L490.9 -175.5L275.4 -391.4V-391.5Z" fill="#212121"/>
<path d="M284.3 -400.3L500.2 -184.8L716 30.9L931.6 246.8L1147.4 462.5L1579 893.8L2010.2 1325.6L2010.1 1325.7L1578.3 894.5L1147 462.9L931.3 247.1L715.4 31.4999L499.7 -184.3L284.2 -400.2L284.3 -400.3Z" fill="#212121"/>
<path d="M293.1 -409.1L509 -193.6L724.8 22.1L940.4 238L1156.2 453.7L1587.8 885L2019 1316.8L2018.9 1316.9L1587.1 885.7L1155.8 454.1L940.1 238.3L724.2 22.7L508.5 -193.1L293 -409L293.1 -409.1Z" fill="#212121"/>
<path d="M301.9 -417.9L517.8 -202.4L733.6 13.3L949.2 229.2L1165 444.9L1596.6 876.2L2027.8 1308L2027.7 1308.1L1595.9 876.9L1164.6 445.3L948.9 229.5L733 13.9L517.3 -201.9L301.8 -417.9H301.9Z" fill="#212121"/>
<path d="M310.7 -426.7L526.6 -211.2L742.4 4.50006L958 220.4L1173.8 436.1L1605.4 867.4L2036.6 1299.2H2036.5L1604.7 868.1L1173.4 436.4L957.7 220.6L741.9 5.00006L526.1 -210.7L310.6 -426.7H310.7Z" fill="#212121"/>
<path d="M319.5 -435.5L535.4 -220L751.2 -4.29999L966.8 211.6L1182.6 427.3L1614.2 858.6L2045.4 1290.4H2045.3L1613.5 859.3L1182.2 427.6L966.5 211.8L750.7 -3.79999L535 -219.5L319.4 -435.5H319.5Z" fill="#212121"/>
<path d="M328.3 -444.4L544.2 -228.8L760 -13.1L975.6 202.8L1191.4 418.4L1623 849.8L2054.2 1281.6H2054.1L1622.4 850.5L1191 418.8L975.3 203L759.5 -12.6L543.8 -228.3L328.2 -444.3L328.3 -444.4Z" fill="#212121"/>
<path d="M337.1 -453.2L553.1 -237.6L768.8 -21.9L984.4 194L1200.2 409.6L1631.9 841L2063 1272.7V1272.8L1631.2 841.6L1199.8 410L984.2 194.2L768.3 -21.4L552.6 -237.1L337 -453.1L337.1 -453.2Z" fill="#212121"/>
<path d="M345.9 -462L561.9 -246.4L777.6 -30.7L993.2 185.1L1209 400.8L1640.7 832.1L2071.8 1263.9V1264L1640 832.8L1208.6 401.2L993 185.4L777.1 -30.2L561.4 -246L345.9 -461.9V-462Z" fill="#212121"/>
<path d="M354.7 -470.8L570.7 -255.3L786.4 -39.5001L1002 176.3L1217.8 392L1649.5 823.3L2080.6 1255.1V1255.2L1648.8 824L1217.5 392.4L1001.8 176.6L785.9 -39.0001L570.2 -254.8L354.7 -470.7V-470.8Z" fill="#212121"/>
<path d="M363.5 -479.6L579.5 -264.1L795.3 -48.4L1010.9 167.5L1226.7 383.2L1658.3 814.5L2089.5 1246.3L2089.4 1246.4L1657.6 815.2L1226.3 383.6L1010.6 167.8L794.7 -47.8L579 -263.6L363.5 -479.5V-479.6Z" fill="#212121"/>
<path d="M372.4 -488.4L588.3 -272.9L804.1 -57.2L1019.7 158.7L1235.5 374.4L1667.1 805.7L2098.3 1237.5L2098.2 1237.6L1666.4 806.4L1235.1 374.8L1019.4 159L803.5 -56.6L587.8 -272.4L372.3 -488.3L372.4 -488.4Z" fill="#212121"/>
<path d="M381.2 -497.2L597.1 -281.7L812.9 -65.9999L1028.5 149.9L1244.3 365.6L1675.9 796.9L2107.1 1228.7L2107 1228.8L1675.2 797.6L1243.9 366L1028.2 150.2L812.3 -65.4L596.6 -281.2L381.1 -497.1L381.2 -497.2Z" fill="#212121"/>
<path d="M390 -506L605.9 -290.5L821.7 -74.8L1037.3 141.1L1253.1 356.8L1684.7 788.1L2115.9 1219.9L2115.8 1220L1684 788.8L1252.7 357.2L1037 141.4L821.1 -74.2L605.4 -290L389.9 -506H390Z" fill="#212121"/>
<path d="M398.8 -514.8L614.7 -299.3L830.5 -83.6L1046.1 132.3L1261.9 348L1693.5 779.3L2124.7 1211.1H2124.6L1692.8 780L1261.5 348.3L1045.8 132.6L830 -83.1L614.2 -298.8L398.7 -514.8H398.8Z" fill="#212121"/>
<path d="M407.6 -523.6L623.5 -308.1L839.3 -92.4L1054.9 123.5L1270.7 339.2L1702.3 770.5L2133.5 1202.3H2133.4L1701.6 771.2L1270.3 339.5L1054.6 123.7L838.8 -91.9L623.1 -307.6L407.5 -523.6H407.6Z" fill="#212121"/>
<path d="M416.4 -532.5L632.3 -316.9L848.1 -101.2L1063.7 114.7L1279.5 330.3L1711.1 761.7L2142.3 1193.5H2142.2L1710.5 762.4L1279.1 330.7L1063.4 114.9L847.6 -100.7L631.9 -316.4L416.3 -532.4L416.4 -532.5Z" fill="#212121"/>
<path d="M425.2 -541.3L641.2 -325.7L856.9 -110L1072.5 105.9L1288.3 321.5L1720 752.9L2151.1 1184.6V1184.7L1719.3 753.5L1287.9 321.9L1072.3 106.1L856.4 -109.5L640.7 -325.2L425.1 -541.2L425.2 -541.3Z" fill="#212121"/>
<path d="M434 -550.1L650 -334.5L865.7 -118.8L1081.3 97L1297.1 312.7L1728.8 744L2159.9 1175.8V1175.9L1728.1 744.7L1296.7 313.1L1081.1 97.3L865.2 -118.3L649.5 -334.1L433.9 -550L434 -550.1Z" fill="#212121"/>
<path d="M442.8 -558.9L658.8 -343.4L874.5 -127.6L1090.1 88.2L1305.9 303.9L1737.6 735.2L2168.7 1167V1167.1L1736.9 735.9L1305.6 304.3L1089.9 88.5L874 -127.1L658.3 -342.9L442.8 -558.8V-558.9Z" fill="#212121"/>
<path d="M451.6 -567.7L667.6 -352.2L883.4 -136.4L1099 79.4001L1314.8 295.1L1746.4 726.4L2177.6 1158.2L2177.5 1158.3L1745.7 727.1L1314.4 295.5L1098.7 79.7L882.8 -135.9L667.1 -351.7L451.6 -567.6V-567.7Z" fill="#212121"/>
<path d="M460.5 -576.5L676.4 -361L892.2 -145.3L1107.8 70.6L1323.6 286.3L1755.2 717.6L2186.4 1149.4L2186.3 1149.5L1754.5 718.3L1323.2 286.7L1107.5 70.9L891.6 -144.7L675.9 -360.5L460.4 -576.4L460.5 -576.5Z" fill="#212121"/>
<path d="M469.3 -585.3L685.2 -369.8L901 -154.1L1116.6 61.8L1332.4 277.5L1764 708.8L2195.2 1140.6L2195.1 1140.7L1763.3 709.5L1332 277.9L1116.3 62.0999L900.4 -153.5L684.7 -369.3L469.2 -585.2L469.3 -585.3Z" fill="#212121"/>
<path d="M478.1 -594.1L694 -378.6L909.8 -162.9L1125.4 52.9999L1341.2 268.7L1772.8 700L2204 1131.8L2203.9 1131.9L1772.1 700.7L1340.8 269.1L1125.1 53.2999L909.2 -162.3L693.5 -378.1L478 -594.1H478.1Z" fill="#212121"/>
<path d="M486.9 -602.9L702.8 -387.4L918.6 -171.7L1134.2 44.2001L1350 259.9L1781.6 691.2L2212.8 1123H2212.7L1780.9 691.9L1349.6 260.2L1133.9 44.5001L918.1 -171.2L702.3 -386.9L486.8 -602.9H486.9Z" fill="#212121"/>
<path d="M495.7 -611.7L711.6 -396.2L927.4 -180.5L1143 35.4001L1358.8 251.1L1790.4 682.4L2221.6 1114.2H2221.5L1789.7 683.1L1358.4 251.4L1142.7 35.6L926.9 -180L711.2 -395.7L495.6 -611.7H495.7Z" fill="#212121"/>
<path d="M504.5 -620.6L720.4 -405L936.2 -189.3L1151.8 26.5999L1367.6 242.2L1799.2 673.6L2230.4 1105.4H2230.3L1798.6 674.3L1367.2 242.6L1151.5 26.7999L935.7 -188.8L720 -404.5L504.4 -620.5L504.5 -620.6Z" fill="#212121"/>
<path d="M513.3 -629.4L729.3 -413.8L945 -198.1L1160.6 17.8002L1376.4 233.4L1808.1 664.8L2239.2 1096.5L2239.1 1096.6L1807.4 665.4L1376 233.8L1160.4 18.0001L944.5 -197.6L728.8 -413.3L513.2 -629.3L513.3 -629.4Z" fill="#212121"/>
<path d="M522.1 -638.2L738.1 -422.6L953.8 -206.9L1169.4 8.90009L1385.2 224.6L1816.9 655.9L2248 1087.7V1087.8L1816.2 656.6L1384.8 225L1169.2 9.20001L953.3 -206.4L737.6 -422.2L522 -638.1L522.1 -638.2Z" fill="#212121"/>
<path d="M530.9 -647L746.9 -431.5L962.6 -215.7L1178.2 0.0999756L1394 215.8L1825.7 647.1L2256.8 1078.9V1079L1825 647.8L1393.7 216.2L1178 0.400024L962.1 -215.2L746.4 -431L530.9 -646.9V-647Z" fill="#212121"/>
<path d="M539.7 -655.8L755.7 -440.3L971.4 -224.5L1187.1 -8.70007L1402.9 207L1834.5 638.3L2265.7 1070.1L2265.6 1070.2L1833.8 639L1402.5 207.4L1186.8 -8.40009L970.9 -224L755.2 -439.8L539.7 -655.7V-655.8Z" fill="#212121"/>
<path d="M548.5 -664.6L764.5 -449.1L980.3 -233.4L1195.9 -17.5001L1411.7 198.2L1843.3 629.5L2274.5 1061.3L2274.4 1061.4L1842.6 630.2L1411.3 198.6L1195.6 -17.2001L979.7 -232.8L764 -448.6L548.5 -664.5V-664.6Z" fill="#212121"/>
<path d="M557.4 -673.4L773.3 -457.9L989.1 -242.2L1204.7 -26.2999L1420.5 189.4L1852.1 620.7L2283.3 1052.5L2283.2 1052.6L1851.4 621.4L1420.1 189.8L1204.4 -25.9999L988.5 -241.6L772.8 -457.4L557.3 -673.3L557.4 -673.4Z" fill="#212121"/>
<path d="M566.2 -682.2L782.1 -466.7L997.9 -251L1213.5 -35.0999L1429.3 180.6L1860.9 611.9L2292.1 1043.7L2292 1043.8L1860.2 612.6L1428.9 181L1213.2 -34.7999L997.3 -250.4L781.6 -466.2L566.1 -682.2H566.2Z" fill="#212121"/>
<path d="M575 -691L790.9 -475.5L1006.7 -259.8L1222.3 -43.9L1438.1 171.8L1869.7 603.1L2300.9 1034.9H2300.8L1869 603.8L1437.7 172.2L1222 -43.6L1006.2 -259.3L790.4 -475L574.9 -691H575Z" fill="#212121"/>
<path d="M583.8 -699.8L799.7 -484.3L1015.5 -268.6L1231.1 -52.7001L1446.9 163L1878.5 594.3L2309.7 1026.1H2309.6L1877.8 595L1446.5 163.3L1230.8 -52.5001L1015 -268.1L799.3 -483.8L583.7 -699.8H583.8Z" fill="#212121"/>
<path d="M592.6 -708.7L808.5 -493.1L1024.3 -277.4L1239.9 -61.4999L1455.7 154.1L1887.3 585.5L2318.5 1017.3H2318.4L1886.7 586.2L1455.3 154.5L1239.6 -61.2999L1023.8 -276.9L808.1 -492.6L592.5 -708.6L592.6 -708.7Z" fill="#212121"/>
<path d="M601.4 -717.5L817.4 -501.9L1033.1 -286.2L1248.7 -70.3L1464.5 145.3L1896.2 576.7L2327.3 1008.4L2327.2 1008.5L1895.5 577.3L1464.1 145.7L1248.5 -70.1L1032.6 -285.7L816.9 -501.4L601.3 -717.4L601.4 -717.5Z" fill="#212121"/>
<path d="M610.2 -726.3L826.2 -510.7L1041.9 -295L1257.5 -79.2001L1473.3 136.5L1905 567.9L2336.1 999.6V999.7L1904.3 568.5L1472.9 136.9L1257.3 -78.9001L1041.4 -294.5L825.7 -510.3L610.1 -726.2L610.2 -726.3Z" fill="#212121"/>
<path d="M619 -735.1L835 -519.6L1050.7 -303.8L1266.3 -88.0001L1482.1 127.7L1913.8 559L2344.9 990.8V990.9L1913.1 559.7L1481.8 128.1L1266.1 -87.7001L1050.2 -303.3L834.5 -519.1L619 -735V-735.1Z" fill="#212121"/>
<path d="M627.8 -743.9L843.8 -528.4L1059.5 -312.6L1275.2 -96.7999L1491 118.9L1922.6 550.2L2353.7 982V982.1L1921.9 550.9L1490.6 119.3L1274.9 -96.4999L1059 -312.1L843.3 -527.9L627.8 -743.8V-743.9Z" fill="#212121"/>
<path d="M636.6 -752.7L852.6 -537.2L1068.4 -321.5L1284 -105.6L1499.8 110.1L1931.4 541.4L2362.6 973.2L2362.5 973.3L1930.7 542.1L1499.4 110.5L1283.7 -105.3L1067.8 -320.9L852.1 -536.7L636.6 -752.6V-752.7Z" fill="#212121"/>
<path d="M645.5 -761.5L861.4 -546L1077.2 -330.3L1292.8 -114.4L1508.6 101.3L1940.2 532.6L2371.4 964.4L2371.3 964.5L1939.5 533.3L1508.2 101.7L1292.5 -114.1L1076.6 -329.7L860.9 -545.5L645.4 -761.4L645.5 -761.5Z" fill="#212121"/>
<path d="M654.3 -770.3L870.2 -554.8L1086 -339.1L1301.6 -123.2L1517.4 92.4999L1949 523.8L2380.2 955.6L2380.1 955.7L1948.3 524.5L1517 92.9L1301.3 -122.9L1085.4 -338.5L869.7 -554.3L654.2 -770.3H654.3Z" fill="#212121"/>
<path d="M663.1 -779.1L879 -563.6L1094.8 -347.9L1310.4 -132L1526.2 83.6998L1957.8 515L2389 946.8H2388.9L1957.1 515.7L1525.8 84.0999L1310.1 -131.7L1094.3 -347.4L878.5 -563.1L663 -779.1H663.1Z" fill="#212121"/>
<path d="M671.9 -787.9L887.8 -572.4L1103.6 -356.7L1319.2 -140.8L1535 74.9001L1966.6 506.2L2397.8 938H2397.7L1965.9 506.9L1534.6 75.2001L1318.9 -140.6L1103.1 -356.2L887.3 -571.9L671.8 -787.9H671.9Z" fill="#212121"/>
<path d="M680.7 -796.8L896.6 -581.2L1112.4 -365.5L1328 -149.6L1543.8 65.9999L1975.4 497.4L2406.6 929.2H2406.5L1974.8 498.1L1543.4 66.4L1327.7 -149.4L1111.9 -365L896.2 -580.7L680.6 -796.7L680.7 -796.8Z" fill="#212121"/>
<path d="M689.5 -805.6L905.5 -590L1121.2 -374.3L1336.8 -158.4L1552.6 57.1998L1984.3 488.6L2415.4 920.3L2415.3 920.4L1983.6 489.3L1552.2 57.5999L1336.6 -158.2L1120.7 -373.8L905 -589.5L689.4 -805.5L689.5 -805.6Z" fill="#212121"/>
<path d="M698.3 -814.4L914.3 -598.8L1130 -383.1L1345.6 -167.3L1561.4 48.4001L1993.1 479.8L2424.2 911.5V911.6L1992.4 480.4L1561 48.8002L1345.4 -167L1129.5 -382.6L913.8 -598.4L698.2 -814.3L698.3 -814.4Z" fill="#212121"/>
<path d="M707.1 -823.2L923.1 -607.7L1138.8 -391.9L1354.4 -176.1L1570.2 39.6L2001.9 470.9L2433 902.7V902.8L2001.2 471.6L1569.9 40.0001L1354.2 -175.8L1138.3 -391.4L922.6 -607.2L707.1 -823.1V-823.2Z" fill="#212121"/>
<path d="M715.9 -832L931.9 -616.5L1147.6 -400.7L1363.3 -184.9L1579.1 30.8L2010.7 462.1L2441.8 893.9V894L2010 462.8L1578.7 31.2L1363 -184.6L1147.1 -400.2L931.4 -616L715.9 -831.9V-832Z" fill="#212121"/>
<path d="M724.7 -840.8L940.7 -625.3L1156.5 -409.6L1372.1 -193.7L1587.9 21.9999L2019.5 453.3L2450.7 885.1L2450.6 885.2L2018.8 454L1587.5 22.4L1371.8 -193.4L1155.9 -409L940.2 -624.8L724.7 -840.7V-840.8Z" fill="#212121"/>
<path d="M733.6 -849.6L949.5 -634.1L1165.3 -418.4L1380.9 -202.5L1596.7 13.1998L2028.3 444.5L2459.5 876.3L2459.4 876.4L2027.6 445.2L1596.3 13.5999L1380.6 -202.2L1164.7 -417.8L949 -633.6L733.5 -849.5L733.6 -849.6Z" fill="#212121"/>
<path d="M742.4 -858.4L958.3 -642.9L1174.1 -427.2L1389.7 -211.3L1605.5 4.40015L2037.1 435.7L2468.3 867.5L2468.2 867.6L2036.4 436.4L1605.1 4.80005L1389.4 -211L1173.5 -426.6L957.8 -642.4L742.3 -858.4H742.4Z" fill="#212121"/>
<path d="M751.2 -867.2L967.1 -651.7L1182.9 -436L1398.5 -220.1L1614.3 -4.39996L2045.9 426.9L2477.1 858.7H2477L2045.2 427.6L1613.9 -3.99994L1398.2 -219.8L1182.4 -435.5L966.6 -651.2L751.1 -867.2H751.2Z" fill="#212121"/>
<path d="M760 -876L975.9 -660.5L1191.7 -444.8L1407.3 -228.9L1623.1 -13.2L2054.7 418.1L2485.9 849.9H2485.8L2054 418.8L1622.7 -12.9L1407 -228.7L1191.2 -444.3L975.4 -660L759.9 -876H760Z" fill="#212121"/>
<path d="M768.8 -884.9L984.7 -669.3L1200.5 -453.6L1416.1 -237.7L1631.9 -22.0999L2063.5 409.3L2494.7 841.1H2494.6L2062.9 410L1631.5 -21.7L1415.8 -237.5L1200 -453.1L984.3 -668.8L768.7 -884.8L768.8 -884.9Z" fill="#212121"/>
<path d="M777.6 -893.7L993.6 -678.1L1209.3 -462.4L1424.9 -246.5L1640.7 -30.9L2072.3 400.5L2503.5 832.2L2503.4 832.3L2071.7 401.2L1640.3 -30.4999L1424.7 -246.3L1208.8 -461.9L993.1 -677.6L777.5 -893.6L777.6 -893.7Z" fill="#212121"/>
<path d="M786.4 -902.5L1002.4 -686.9L1218.1 -471.2L1433.7 -255.4L1649.5 -39.7L2081.2 391.7L2512.3 823.4V823.5L2080.5 392.3L1649.1 -39.3L1433.5 -255.1L1217.6 -470.7L1001.9 -686.5L786.3 -902.4L786.4 -902.5Z" fill="#212121"/>
<path d="M795.2 -911.3L1011.2 -695.7L1226.9 -480L1442.5 -264.2L1658.3 -48.5001L2090 382.8L2521.1 814.6V814.7L2089.3 383.5L1658 -48.1L1442.3 -263.9L1226.4 -479.5L1010.7 -695.3L795.2 -911.2V-911.3Z" fill="#212121"/>
<path d="M804 -920.1L1020 -704.6L1235.7 -488.8L1451.4 -273L1667.2 -57.3001L2098.8 374L2529.9 805.8V805.9L2098.1 374.7L1666.8 -56.9001L1451.1 -272.7L1235.2 -488.3L1019.5 -704.1L804 -920V-920.1Z" fill="#212121"/>
<path d="M812.8 -928.9L1028.8 -713.4L1244.6 -497.7L1460.2 -281.8L1676 -66.0999L2107.6 365.2L2538.8 797L2538.7 797.1L2106.9 365.9L1675.6 -65.6999L1459.9 -281.5L1244 -497.1L1028.3 -712.9L812.8 -928.8V-928.9Z" fill="#212121"/>
<path d="M821.7 -937.7L1037.6 -722.2L1253.4 -506.5L1469 -290.6L1684.8 -74.9L2116.4 356.4L2547.6 788.2L2547.5 788.3L2115.7 357.1L1684.4 -74.4999L1468.7 -290.3L1252.8 -505.9L1037.1 -721.7L821.6 -937.6L821.7 -937.7Z" fill="#212121"/>
<path d="M830.5 -946.5L1046.4 -731L1262.2 -515.3L1477.8 -299.4L1693.6 -83.7L2125.2 347.6L2556.4 779.4L2556.3 779.5L2124.5 348.3L1693.2 -83.3L1477.5 -299.1L1261.6 -514.7L1045.9 -730.5L830.4 -946.4L830.5 -946.5Z" fill="#212121"/>
<path d="M839.3 -955.3L1055.2 -739.8L1271 -524.1L1486.6 -308.2L1702.4 -92.5001L2134 338.8L2565.2 770.6L2565.1 770.7L2133.3 339.5L1702 -92.1L1486.3 -307.9L1270.5 -523.5L1054.7 -739.3L839.2 -955.3H839.3Z" fill="#212121"/>
<path d="M848.1 -964.1L1064 -748.6L1279.8 -532.9L1495.4 -317L1711.2 -101.3L2142.8 330L2574 761.8H2573.9L2142.1 330.7L1710.8 -101L1495.1 -316.8L1279.3 -532.4L1063.5 -748.1L848 -964.1H848.1Z" fill="#212121"/>
<path d="M856.9 -973L1072.8 -757.4L1288.6 -541.7L1504.2 -325.8L1720 -110.2L2151.6 321.2L2582.8 753H2582.7L2150.9 321.9L1719.6 -109.8L1503.9 -325.6L1288.1 -541.2L1072.4 -756.9L856.8 -972.9L856.9 -973Z" fill="#212121"/>
<path d="M865.7 -981.8L1081.7 -766.2L1297.4 -550.5L1513 -334.6L1728.8 -119L2160.4 312.4L2591.6 744.2H2591.5L2159.8 313.1L1728.4 -118.6L1512.8 -334.4L1296.9 -550L1081.2 -765.7L865.6 -981.7L865.7 -981.8Z" fill="#212121"/>
<path d="M874.5 -990.6L1090.5 -775L1306.2 -559.3L1521.8 -343.5L1737.6 -127.8L2169.3 303.6L2600.4 735.3V735.4L2168.6 304.2L1737.2 -127.4L1521.6 -343.2L1305.7 -558.8L1090 -774.6L874.4 -990.5L874.5 -990.6Z" fill="#212121"/>
<path d="M883.3 -999.4L1099.3 -783.8L1315 -568.1L1530.6 -352.3L1746.4 -136.6L2178.1 294.7L2609.2 726.5V726.6L2177.4 295.4L1746.1 -136.2L1530.4 -352L1314.5 -567.6L1098.8 -783.4L883.3 -999.3V-999.4Z" fill="#212121"/>
<path d="M892.1 -1008.2L1108.1 -792.7L1323.8 -576.9L1539.5 -361.1L1755.2 -145.4L2186.9 285.9L2618 717.7V717.8L2186.2 286.6L1754.9 -145L1539.2 -360.8L1323.3 -576.4L1107.6 -792.2L892.1 -1008.1V-1008.2Z" fill="#212121"/>
<path d="M900.9 -1017L1116.9 -801.5L1332.7 -585.8L1548.3 -369.9L1764.1 -154.2L2195.7 277.1L2626.9 708.9L2626.8 709L2195 277.8L1763.7 -153.8L1548 -369.6L1332.1 -585.2L1116.4 -801L900.9 -1016.9V-1017Z" fill="#212121"/>
</svg>
