<?xml version="1.0" standalone="no"?>
<!DOCTYPE svg PUBLIC "-//W3C//DTD SVG 20010904//EN"
 "http://www.w3.org/TR/2001/REC-SVG-20010904/DTD/svg10.dtd">
<svg version="1.0" xmlns="http://www.w3.org/2000/svg"
 width="1091.000000pt" height="192.000000pt" viewBox="0 0 1091.000000 192.000000"
 preserveAspectRatio="xMidYMid meet">

<g transform="translate(0.000000,192.000000) scale(0.100000,-0.100000)"
fill="#ffffff" stroke="none">
<path d="M5100 1655 l0 -255 -450 0 -450 0 0 234 c0 129 -3 241 -6 250 -5 14
-50 16 -399 16 l-394 0 -3 -202 c-2 -112 1 -206 5 -209 4 -3 7 -25 6 -47 l-3
-42 -458 0 -458 0 0 250 0 250 -400 0 -401 0 1 -192 c0 -106 1 -219 0 -251 l0
-57 -452 2 -453 3 -3 248 -2 247 -385 0 -385 0 0 -699 0 -699 378 -7 c1011
-18 1445 -33 1502 -50 120 -37 204 -97 281 -202 35 -47 89 -179 89 -217 0 -15
74 -16 771 -14 l771 3 18 57 c21 69 52 123 119 208 105 133 240 221 397 260
79 20 105 21 1150 17 l1069 -3 65 -22 c144 -50 263 -137 358 -260 65 -85 91
-130 116 -210 l18 -52 768 0 768 0 7 32 c37 189 181 349 360 402 62 18 473 32
1512 51 l371 7 4 492 c1 270 2 584 0 699 l-3 207 -385 0 -384 0 0 -250 0 -250
-450 -2 c-367 -3 -451 -1 -455 10 -3 8 -5 121 -5 253 l0 239 -394 0 -393 0 -5
-245 c-3 -135 -7 -248 -10 -250 -2 -3 -206 -5 -454 -5 l-449 -1 -1 58 c-1 32
-2 145 -3 251 l-1 192 -395 0 -395 0 0 -252 0 -253 -397 3 c-218 1 -399 5
-402 8 -2 2 -7 117 -9 254 l-5 250 -403 0 -404 0 0 -255z m-4360 55 l0 -150
-355 0 -355 0 0 150 0 150 355 0 355 0 0 -150z m1700 0 l0 -150 -349 0 -350 0
-3 150 -3 150 353 0 352 0 0 -150z m1710 0 l0 -150 -355 0 -355 0 0 150 0 150
355 0 355 0 0 -150z m1710 0 l0 -150 -355 0 -355 0 0 150 0 150 355 0 355 0 0
-150z m1610 0 l0 -150 -355 0 -355 0 0 150 0 150 355 0 355 0 0 -150z m1710 0
l0 -150 -355 0 -355 0 0 150 0 150 355 0 355 0 0 -150z m1700 -2 l0 -153 -355
3 -355 2 0 150 0 150 355 0 355 0 0 -152z m-10120 -243 l0 -45 -360 0 -360 0
0 45 0 45 360 0 360 0 0 -45z m965 35 c-5 -7 113 -10 372 -8 l379 3 -6 -40 -5
-40 -373 -3 c-293 -2 -373 0 -376 10 -3 7 -7 30 -10 51 -4 28 -1 37 10 37 8 0
12 -5 9 -10z m5775 -50 l0 -60 -385 0 -385 0 0 60 0 60 385 0 385 0 0 -60z
m3370 -1 l0 -59 -360 0 -360 0 0 60 0 61 360 -1 360 -1 0 -60z m-6696 3 l-1
-37 -377 -3 -376 -2 0 42 0 43 377 -3 378 -2 -1 -38z m1696 6 l0 -38 -370 0
-370 0 0 38 0 37 370 0 370 0 0 -37z m3335 -5 l0 -38 -380 0 -380 0 -3 40 -3
40 383 -2 383 -2 0 -38z m1608 -275 l-2 -123 -5358 -3 -5358 -2 3 125 3 125
5357 0 5357 0 -2 -122z m-6 -302 c6 -3 10 -13 8 -23 -2 -10 -4 -78 -4 -151
l-1 -134 -272 3 c-150 1 -379 -1 -508 -4 -129 -4 -359 -9 -510 -12 -362 -7
-465 -14 -511 -33 -15 -6 -30 -8 -33 -5 -3 4 -6 1 -6 -6 0 -8 -7 -11 -15 -7
-8 3 -15 1 -15 -5 0 -6 -4 -8 -9 -4 -5 3 -12 1 -16 -5 -4 -6 -11 -8 -16 -4 -6
3 -20 -6 -32 -19 -12 -14 -28 -27 -36 -29 -8 -2 -28 -18 -44 -36 -17 -18 -43
-40 -59 -48 -16 -8 -26 -19 -24 -23 3 -5 -6 -21 -19 -35 -14 -15 -25 -31 -25
-37 0 -5 -9 -18 -20 -29 -11 -11 -17 -20 -14 -20 4 0 1 -7 -6 -15 -7 -8 -9
-15 -4 -15 5 0 3 -4 -4 -9 -8 -5 -15 -20 -15 -35 -1 -18 -9 -28 -22 -32 -11
-2 -334 -5 -718 -7 -730 -2 -704 -3 -698 35 0 5 -3 8 -9 8 -5 0 -7 7 -4 15 4
8 1 15 -6 15 -6 0 -9 4 -5 9 3 6 -1 13 -8 18 -16 9 -42 54 -39 65 1 4 -7 12
-18 18 -11 6 -20 14 -20 19 0 4 -18 27 -40 51 -21 23 -38 48 -37 54 1 6 -3 10
-9 9 -5 -1 -33 20 -62 46 -29 26 -52 46 -52 43 0 -3 -8 2 -17 10 -10 8 -37 23
-61 33 -23 10 -47 24 -53 31 -6 8 -15 12 -19 9 -5 -3 -11 -1 -15 4 -3 6 -12 8
-20 4 -8 -3 -15 0 -15 6 0 6 -7 8 -15 5 -8 -4 -15 -1 -15 6 0 6 -5 8 -10 5 -6
-4 -17 -1 -25 5 -8 7 -15 9 -15 5 0 -4 -6 -3 -13 3 -7 6 -28 10 -47 10 -19 0
-492 -1 -1050 0 -558 0 -1035 -2 -1060 -4 -25 -2 -53 -4 -62 -4 -10 -1 -18 -5
-18 -10 0 -5 -7 -7 -15 -4 -8 4 -15 1 -15 -6 0 -7 -6 -10 -14 -7 -8 3 -16 2
-18 -3 -2 -6 -15 -11 -30 -12 -16 -1 -28 -6 -28 -11 0 -4 -4 -6 -9 -3 -5 4
-11 2 -13 -3 -1 -5 -10 -11 -18 -13 -8 -2 -21 -9 -28 -16 -8 -7 -18 -10 -23
-6 -5 3 -12 -2 -15 -10 -3 -9 -10 -13 -15 -10 -5 3 -9 0 -9 -7 0 -7 -3 -10 -6
-6 -3 3 -20 -10 -36 -29 -17 -19 -33 -33 -35 -30 -3 3 -16 -8 -30 -25 -14 -16
-30 -26 -35 -22 -6 3 -8 1 -5 -4 4 -6 -7 -25 -23 -43 -17 -18 -30 -36 -30 -40
0 -5 -8 -15 -17 -22 -10 -7 -27 -29 -37 -48 -11 -19 -26 -41 -33 -48 -7 -8
-11 -18 -8 -23 4 -5 1 -9 -5 -9 -6 0 -8 -5 -5 -10 3 -6 1 -10 -5 -10 -6 0 -8
-5 -5 -10 3 -6 1 -10 -4 -10 -6 0 -11 -6 -11 -12 0 -10 -147 -13 -707 -11
-388 2 -708 5 -710 7 -3 2 -6 17 -8 32 -1 16 -7 30 -13 32 -6 2 -8 10 -5 18 3
8 -1 14 -8 14 -7 0 -9 3 -6 7 4 3 -1 12 -11 20 -11 10 -12 12 -2 8 8 -4 6 1
-4 9 -11 9 -17 16 -13 16 4 0 -2 9 -13 20 -12 12 -18 26 -14 32 4 6 3 8 -4 4
-6 -3 -13 2 -17 12 -6 21 -69 82 -84 82 -4 0 -16 10 -25 22 -9 13 -14 17 -10
10 5 -11 2 -11 -15 0 -12 7 -21 16 -21 21 0 4 -5 5 -10 2 -6 -3 -13 1 -16 9
-3 9 -10 13 -15 10 -5 -3 -9 0 -9 6 0 7 -7 10 -15 6 -8 -3 -15 0 -15 6 0 6 -3
8 -7 5 -3 -4 -12 -2 -20 4 -7 6 -13 8 -13 4 0 -4 -7 -2 -15 5 -8 7 -15 9 -15
5 0 -4 -6 -3 -13 4 -7 6 -27 10 -43 10 -16 -1 -65 2 -109 5 -44 3 -206 8 -360
11 -154 3 -386 8 -515 12 -129 4 -354 5 -500 4 l-265 -4 0 159 0 159 5350 -2
c2943 -2 5355 -5 5362 -7z"/>
<path d="M8759 393 c-13 -16 -12 -17 4 -4 9 7 17 15 17 17 0 8 -8 3 -21 -13z"/>
</g>
</svg>
